<svg width="344" height="348" viewBox="0 0 344 348" fill="none" xmlns="http://www.w3.org/2000/svg">
<g clip-path="url(#clip0_38_1366)">
<path d="M386.599 66.5778C372.693 50.416 361.929 31.1229 345.309 17.9336C319.202 -2.82657 281.631 -4.85103 251.105 8.19103C220.58 21.2324 196.8 47.5208 181.127 77.2878C172.882 92.9492 166.406 110.033 154.325 122.831C144.112 133.644 130.689 140.542 117.963 148.056C97.4432 160.137 77.6823 174.735 64.4032 194.765C51.1254 214.795 45.1886 241.103 53.6767 263.676C59.4006 278.908 70.93 291.028 82.7412 302C96.641 314.902 111.58 326.982 128.822 334.669C150.407 344.233 174.368 346.289 197.866 347.262C239.522 348.98 281.246 347.696 322.726 343.419C356.693 339.922 391.689 333.952 420.108 314.626C459.918 287.563 480.444 237.977 485.065 189.353C486.945 169.906 486.469 149.696 479.122 131.652C461.549 88.491 414.134 98.5858 386.598 66.5778H386.599Z" fill="#EFF1F7"/>
<path d="M118.229 146.083C118.229 146.083 107.223 143.956 104.14 152.342C101.057 160.729 104.14 189.693 104.14 189.693L145.203 221.651L118.229 146.083Z" fill="#3F3D56"/>
<path d="M169.869 274.16L153.589 279.22C151.223 279.949 148.742 278.532 148.038 276.053C147.344 273.571 148.692 270.966 151.055 270.227L167.313 265.163C169.677 264.434 172.158 265.847 172.864 268.325C173.566 270.803 172.228 273.411 169.869 274.16Z" fill="#2BD0D0"/>
<path d="M169.072 293.129C173.1 293.129 176.365 289.573 176.365 285.187C176.365 280.801 173.1 277.245 169.072 277.245C165.044 277.245 161.779 280.801 161.779 285.187C161.779 289.573 165.044 293.129 169.072 293.129Z" fill="#25233A"/>
<path d="M168.078 290.963C170.092 290.963 171.724 289.185 171.724 286.992C171.724 284.799 170.092 283.021 168.078 283.021C166.064 283.021 164.431 284.799 164.431 286.992C164.431 289.185 166.064 290.963 168.078 290.963Z" fill="#3F3D56"/>
<path d="M139.236 285.187C143.264 285.187 146.529 281.631 146.529 277.245C146.529 272.859 143.264 269.303 139.236 269.303C135.208 269.303 131.943 272.859 131.943 277.245C131.943 281.631 135.208 285.187 139.236 285.187Z" fill="#25233A"/>
<path d="M141.888 277.606C141.888 278.659 141.504 279.669 140.82 280.414C140.136 281.158 139.209 281.577 138.241 281.577C137.274 281.577 136.347 281.158 135.663 280.414C134.979 279.669 134.595 278.659 134.595 277.606C134.595 276.553 134.979 275.543 135.663 274.798C136.347 274.053 137.274 273.635 138.241 273.635C139.209 273.635 140.136 274.053 140.82 274.798C141.504 275.543 141.888 276.553 141.888 277.606Z" fill="url(#paint0_linear_38_1366)"/>
<path d="M137.247 296.017C141.275 296.017 144.54 292.461 144.54 288.075C144.54 283.689 141.275 280.133 137.247 280.133C133.219 280.133 129.954 283.689 129.954 288.075C129.954 292.461 133.219 296.017 137.247 296.017Z" fill="#25233A"/>
<path d="M143.214 288.436C143.214 289.489 142.83 290.499 142.146 291.244C141.462 291.988 140.535 292.407 139.568 292.407C138.6 292.407 137.673 291.988 136.989 291.244C136.305 290.499 135.921 289.489 135.921 288.436C135.921 287.383 136.305 286.373 136.989 285.628C137.673 284.883 138.6 284.465 139.568 284.465C140.535 284.465 141.462 284.883 142.146 285.628C142.83 286.373 143.214 287.383 143.214 288.436Z" fill="#3F3D56"/>
<path d="M170.455 282.208L136.781 274.955C134.412 274.437 132.88 271.973 133.355 269.442C133.84 266.915 136.146 265.28 138.517 265.784L172.19 273.023C174.559 273.541 176.091 276.005 175.616 278.537C175.137 281.069 172.829 282.711 170.455 282.208Z" fill="#2BD0D0"/>
<path d="M149.844 223.817H159.127V266.415C159.127 269.206 157.05 271.469 154.488 271.469C153.257 271.468 152.077 270.936 151.207 269.988C150.338 269.04 149.849 267.755 149.849 266.415V223.817H149.844Z" fill="#2BD0D0"/>
<path d="M153.283 279.2L137.015 284.272C134.649 285.004 132.165 283.587 131.462 281.104C130.768 278.62 132.116 276.014 134.477 275.275L150.746 270.217C153.109 269.488 155.589 270.901 156.294 273.38C156.983 275.86 155.638 278.459 153.283 279.199V279.2Z" fill="#2BD0D0"/>
<path d="M156.475 278.877L154.403 279.274C153.774 279.393 153.134 279.435 152.497 279.399L153.362 279.234C153.935 279.13 154.494 278.947 155.024 278.689L156.475 278.877Z" fill="url(#paint1_linear_38_1366)"/>
<path d="M173.05 269.114C173.052 270.228 172.712 271.312 172.082 272.191L158.464 269.05C158.808 268.514 159.055 267.91 159.192 267.273L167.582 264.44C168.122 264.263 168.69 264.208 169.251 264.28C169.811 264.352 170.352 264.549 170.839 264.858C171.834 265.484 172.569 266.536 172.883 267.781C172.992 268.214 173.049 268.663 173.05 269.114Z" fill="url(#paint2_linear_38_1366)"/>
<path opacity="0.31" d="M149.327 267.933C149.23 267.562 149.181 267.178 149.181 266.793V224.539H153.122V270.075C153.083 270.299 153.095 270.528 153.16 270.747C152.552 270.517 151.916 270.393 151.273 270.378C150.816 270.349 150.355 270.349 149.897 270.378L150.179 270.306C150.352 270.277 149.555 268.796 149.328 267.933H149.327Z" fill="url(#paint3_linear_38_1366)"/>
<path opacity="0.31" d="M173.905 281.432C173.262 281.81 172.539 282.008 171.803 282.007C171.507 282.006 171.212 281.975 170.921 281.913L156.065 278.732L154.827 278.47C154.402 278.816 153.923 279.074 153.413 279.232L152.677 279.461L137.411 284.273C135.081 285 132.635 283.593 131.943 281.124C133.267 282.427 135.277 282.549 136.732 281.414C138.595 280.045 146.015 277.989 150.218 276.896C152.205 276.392 153.724 274.694 154.096 272.564C154.106 272.439 154.124 272.314 154.149 272.191C154.849 272.994 156.136 273.896 158.462 274.662C164.19 276.532 173.491 277.77 173.491 277.77C173.491 277.77 175.169 279.517 173.905 281.432Z" fill="url(#paint4_linear_38_1366)"/>
<path d="M175.039 280.133C174.684 280.7 174.234 281.19 173.713 281.577C174.161 281.101 174.603 280.62 175.039 280.133Z" fill="url(#paint5_linear_38_1366)"/>
<path d="M150.043 267.541C150.229 268.389 150.617 269.169 151.17 269.8C151.031 269.829 150.889 269.867 150.745 269.909L136.642 274.357C134.473 273.77 133.045 271.566 133.298 269.198C133.55 266.829 135.407 265.024 137.645 264.971C137.945 264.972 138.245 265.004 138.54 265.066L150.043 267.541Z" fill="url(#paint6_linear_38_1366)"/>
<path d="M171.724 64.5512C171.724 64.5512 171.541 49.5302 160.403 50.8261C149.264 52.1207 150.119 47.1476 145.361 47.6934C140.604 48.24 135.078 53.3148 136.664 59.5832C138.252 65.8515 132.466 67.2529 128.665 72.0086C124.864 76.7644 129.56 80.6552 135.963 85.3048C142.366 89.9545 135.565 88.7509 139.361 96.1022C143.157 103.453 156.007 94.0626 156.007 94.0626L171.724 64.5512Z" fill="#503164"/>
<path d="M81.3297 313.778L89.107 314.066V246.383C89.107 246.383 89.4982 228.882 104.656 227.126C119.814 225.37 257.283 203.685 257.283 203.685C257.283 203.685 262.732 203.057 265.87 214.444C269.008 225.83 272.062 270.605 272.062 270.605L314.258 276.798C314.258 276.798 315.371 197.704 300.134 193.339C284.897 188.975 85.6294 211.216 85.6294 211.216C85.6294 211.216 70.8505 295.221 81.3297 313.778Z" fill="#2BD0D0"/>
<path opacity="0.197" d="M81.3297 313.778L89.107 314.066V246.383C89.107 246.383 89.4982 228.882 104.656 227.126C119.814 225.37 257.283 203.685 257.283 203.685C257.283 203.685 262.732 203.057 265.87 214.444C269.008 225.83 272.062 270.605 272.062 270.605L314.258 276.798C314.258 276.798 315.371 197.704 300.134 193.339C284.897 188.975 85.6294 211.216 85.6294 211.216C85.6294 211.216 70.8505 295.221 81.3297 313.778Z" fill="url(#paint7_linear_38_1366)"/>
<path d="M41.1077 219.33C41.1077 219.33 44.9161 196.402 71.7025 190.393L260.787 166.825C260.787 166.825 279.349 165.987 287.841 171.581C296.333 177.173 308.453 181.81 313.423 207.119C318.392 232.429 319.58 275.667 319.58 275.667L314.879 276.461C314.879 276.461 308.018 198.168 300.748 193.211C293.48 188.254 96.932 218.665 96.932 218.665C96.932 218.665 83.2995 221.616 82.112 243.596C80.9252 265.576 82.112 313.344 82.112 313.344L41.1077 295.336V219.33Z" fill="#2BD0D0"/>
<path opacity="0.19" d="M235.657 176.053C225.869 174.682 216.002 173.688 206.139 174.09C198.727 174.402 191.363 175.509 184.013 176.611L119.185 186.361C118.085 186.527 116.831 186.796 116.281 187.836C115.226 189.823 117.707 191.781 119.717 192.538C141.272 200.665 164.301 208.895 186.489 203.101C196.634 200.452 206.056 194.951 216.345 193.04C226.634 191.129 237.196 192.888 247.463 191.086C257.115 189.393 266.305 184.582 276.088 184.535C279.088 184.535 282.176 184.951 285.022 183.929C287.868 182.907 290.385 179.785 289.597 176.673C280.412 176.328 270.101 174.502 261.092 176.484C252.175 178.442 244.587 176.053 235.657 176.053Z" fill="url(#paint8_linear_38_1366)"/>
<path d="M177.029 187.27L177.406 188.797C177.406 188.797 188.599 196.141 188.529 196.378C188.459 196.615 234.957 184.653 234.957 184.653L236.038 181.22L177.029 187.27Z" fill="#2BD0D0"/>
<path d="M177.029 187.27L177.406 188.797C177.406 188.797 188.599 196.141 188.529 196.378C188.459 196.615 234.957 184.653 234.957 184.653L236.038 181.22L177.029 187.27Z" fill="url(#paint9_linear_38_1366)"/>
<path d="M177.692 187.259L218.87 177.61L236.038 181.259L189.256 193.494L177.692 187.259Z" fill="#2BD0D0"/>
<path d="M177.692 187.259L218.87 177.61L236.038 181.259L189.256 193.494L177.692 187.259Z" fill="url(#paint10_linear_38_1366)"/>
<path d="M164.32 195.287L173.905 195.657C173.905 195.657 176.34 195.821 176.968 193.695C177.598 191.569 173.063 187.082 172.578 186.997C172.092 186.912 159.476 190.766 161.295 194.619L164.32 195.287Z" fill="#2BD0D0"/>
<path d="M164.32 195.287L173.905 195.657C173.905 195.657 176.34 195.821 176.968 193.695C177.598 191.569 173.063 187.082 172.578 186.997C172.092 186.912 159.476 190.766 161.295 194.619L164.32 195.287Z" fill="url(#paint11_linear_38_1366)"/>
<path d="M52.3792 300.389L47.6996 316.04C34.1254 321.347 22.584 316.04 22.584 316.04L19.2278 299.627C19.2278 299.627 36.1582 305.807 52.3792 300.389Z" fill="#2BD0D0"/>
<path d="M52.3792 300.389L47.6996 316.04C34.1254 321.347 22.584 316.04 22.584 316.04L19.2278 299.627C19.2278 299.627 36.1582 305.807 52.3792 300.389Z" fill="url(#paint12_linear_38_1366)"/>
<path d="M57.6834 285.909L56.1691 298.141L52.3328 300.313C35.9904 305.67 18.9062 299.564 18.9062 299.564L15.9603 297.193L14.5865 285.909H57.6834Z" fill="#2BD0D0"/>
<path d="M57.6834 285.909L56.1691 298.141L52.3328 300.313C35.9904 305.67 18.9062 299.564 18.9062 299.564L15.9603 297.193L14.5865 285.909H57.6834Z" fill="url(#paint13_linear_38_1366)"/>
<path d="M36.135 289.519C48.0359 289.519 57.6834 287.579 57.6834 285.187C57.6834 282.794 48.0359 280.855 36.135 280.855C24.2341 280.855 14.5865 282.794 14.5865 285.187C14.5865 287.579 24.2341 289.519 36.135 289.519Z" fill="#2BD0D0"/>
<path d="M36.135 289.519C48.0359 289.519 57.6834 287.579 57.6834 285.187C57.6834 282.794 48.0359 280.855 36.135 280.855C24.2341 280.855 14.5865 282.794 14.5865 285.187C14.5865 287.579 24.2341 289.519 36.135 289.519Z" fill="url(#paint14_linear_38_1366)"/>
<path d="M26.2831 191.35C24.1733 190.256 21.9051 189.43 20.0798 187.833C16.402 184.584 15.4697 178.99 14.3181 173.973C13.1671 168.954 10.9386 163.437 6.39886 161.997C4.70018 161.465 2.70778 161.676 1.4162 163.001C0.0549984 164.396 -0.221484 166.69 0.151138 168.714C0.523097 170.739 1.42946 172.552 2.13028 174.472C3.76624 178.932 4.26384 183.791 3.57038 188.534C2.99686 192.425 1.62638 196.368 2.50622 200.182C3.99936 206.654 11.4372 210.449 11.6427 217.118C11.7833 221.618 8.40385 225.783 9.16965 230.211C9.73455 233.488 12.4881 236.045 12.6373 239.375C12.803 243.151 9.54625 246.346 9.70405 250.122C9.86119 253.898 13.3023 256.421 15.5487 259.391C17.4331 261.89 18.5522 264.968 18.7491 268.195C18.8671 270.21 18.6304 272.297 19.2304 274.207C19.668 275.602 20.5432 276.788 21.2222 278.045C21.9714 279.402 22.5356 280.871 23.4374 282.128C24.5658 283.692 26.1012 284.849 27.8429 285.448C29.5846 286.047 31.4517 286.06 33.2005 285.486C33.8966 280.468 33.288 275.349 33.4809 270.277C33.8615 260.451 37.2542 250.549 35.0828 241.011C34.2865 237.514 32.7542 234.193 32.4824 230.605C32.2417 227.399 33.0208 224.224 33.5638 221.062C34.6843 214.533 34.6671 207.782 34.2069 201.18C33.8443 195.941 30.482 193.528 26.2837 191.35H26.2831Z" fill="#2BD0D0"/>
<path d="M39.6172 217.151C39.5821 221.528 40.499 226.053 39.2114 230.209C38.2368 233.358 36.0939 235.937 34.9873 239.033C32.4346 246.18 35.8691 254.195 35.1683 261.827C34.8766 264.97 33.8847 267.99 33.2588 271.078C32.4812 274.986 32.2906 279.005 32.6945 282.98C32.6535 283.704 32.8539 284.42 33.259 284.996C33.664 285.572 34.2464 285.969 34.8991 286.115C37.0597 287.01 39.2977 287.667 41.5791 288.075C40.8078 283.447 41.6204 278.672 43.8632 274.653C47.3601 268.422 54.1548 264.223 55.4198 257.066C56.2751 252.22 54.2827 247.302 54.424 242.37C54.5257 239.087 55.5645 235.92 57.3957 233.31C59.04 230.98 61.2671 229.178 62.7973 226.762C66.4745 220.938 65.3281 213.154 64.2348 206.189C63.1408 199.224 62.5063 191.209 66.8272 185.932C68.1944 184.265 69.9753 183.013 71.2145 181.23C73.9747 177.256 73.2778 171.134 70.0675 167.583C66.8584 164.031 61.6901 163.049 57.3254 164.611C55.4846 165.2 53.8594 166.402 52.6775 168.048C50.473 171.451 51.3548 176.101 52.2897 180.146C53.1052 183.66 53.7623 187.715 52.647 191.258C51.8136 193.894 49.7012 195.323 47.9064 197.158C45.3636 199.715 43.3193 202.802 41.8952 206.237C40.4712 209.672 39.6964 213.384 39.6172 217.151Z" fill="#2BD0D0"/>
<path d="M35.1815 255.962C34.5596 260.722 33.6619 265.52 33.4776 270.294V270.774C33.468 270.893 33.4433 271.009 33.404 271.12C32.6271 275.032 32.4332 279.055 32.8298 283.034C32.8536 283.679 33.0028 284.31 33.2674 284.886C33.2462 285.088 33.2196 285.284 33.1938 285.486C31.4445 286.06 29.5768 286.047 27.8345 285.448C26.0922 284.849 24.5563 283.691 23.4274 282.127C22.5522 280.87 21.9601 279.401 21.2115 278.044C20.5107 276.782 19.6567 275.597 19.2191 274.205C18.6191 272.286 18.8551 270.208 18.7371 268.193C18.5405 264.966 17.4211 261.887 15.536 259.388C13.289 256.437 9.84258 253.961 9.68942 250.123C9.53626 246.284 12.7897 243.151 12.6233 239.374C12.4748 236.044 9.71991 233.487 9.15568 230.21C8.38855 225.781 11.7826 221.616 11.6294 217.115C11.4239 210.445 3.98339 206.65 2.48959 200.177C1.61439 196.362 2.98023 192.418 3.55375 188.527C4.25067 183.79 3.75905 178.935 2.13089 174.477C1.43007 172.558 0.523707 170.75 0.151085 168.719C-0.220874 166.691 0.0549461 164.401 1.41681 163C2.73093 161.676 4.70145 161.465 6.40079 161.997C10.9465 163.437 13.1663 168.974 14.3227 173.993C15.479 179.012 16.4072 184.602 20.0857 187.855C21.9037 189.463 24.1806 190.278 26.2917 191.373C30.4953 193.551 33.8588 195.965 34.2182 201.156C34.6558 207.758 34.6955 214.51 33.575 221.04C33.0313 224.202 32.2609 227.379 32.493 230.584C32.725 233.79 33.9994 236.822 34.8315 239.931C34.9236 240.281 35.0151 240.636 35.094 240.992C36.198 245.929 35.8432 250.924 35.1815 255.962Z" fill="#30C59B"/>
<path d="M32.9644 284.465C32.764 283.89 32.6516 283.283 32.6315 282.668C32.3464 278.799 32.4883 274.885 33.0539 271.083C33.0691 270.971 33.0884 270.859 33.1069 270.747C32.9936 275.329 33.3549 279.948 32.9644 284.465Z" fill="url(#paint15_linear_38_1366)"/>
<path d="M71.2046 181.23C69.964 183.013 68.1798 184.264 66.8107 185.932C62.4831 191.205 63.1189 199.224 64.2143 206.189C65.3089 213.154 66.4573 220.938 62.7742 226.763C61.2426 229.16 59.0121 230.98 57.3645 233.31C55.5306 235.919 54.4899 239.086 54.3875 242.37C54.2469 247.302 56.2427 252.22 55.386 257.066C54.119 264.223 47.3137 268.432 43.8115 274.654C41.574 278.675 40.7664 283.449 41.5413 288.075C39.2622 287.667 37.0267 287.011 34.8686 286.115C34.2789 285.924 33.7438 285.573 33.3145 285.093C33.2535 285.015 33.1987 284.932 33.1507 284.844C32.8771 284.273 32.719 283.646 32.6872 283.003C32.2901 279.027 32.4883 275.008 33.2747 271.101C33.2966 270.986 33.3231 270.871 33.3496 270.756C33.9768 267.789 34.9044 264.879 35.1869 261.85C35.3371 259.886 35.3015 257.91 35.0808 255.954C35.7478 250.921 36.1052 245.931 34.9793 241.032C34.8998 240.678 34.8069 240.323 34.7141 239.973C34.7983 239.666 34.8951 239.359 35.0059 239.057C36.1144 235.961 38.2607 233.382 39.236 230.232C40.5216 226.077 39.6073 221.552 39.6424 217.175C39.7001 209.616 42.8402 202.317 47.8832 197.158C49.68 195.323 51.7957 193.895 52.6305 191.258C53.7477 187.715 53.0721 183.66 52.2724 180.146C51.3323 176.101 50.4398 171.451 52.6616 168.048C53.7656 166.361 55.506 165.263 57.3161 164.611C61.6702 163.048 66.8684 164.031 70.0787 167.583C73.2891 171.135 73.9694 177.279 71.2046 181.23Z" fill="#30C59B"/>
<path d="M149.561 105.516C149.561 105.516 131.118 108.621 122.587 130.769C114.056 152.918 118.492 180.358 118.641 182.772C118.79 185.187 144.783 195.66 152.214 195.66C159.645 195.66 161.192 187.553 161.192 187.553L148.062 181.464L187.957 176.447H195.12L191.174 183.69C191.174 183.69 198.96 184.578 204.164 184.781C209.368 184.984 212.902 173.778 213.485 168.205C214.068 162.633 190.499 113.725 186.979 110.828C183.458 107.931 173.906 100.852 149.561 105.516Z" fill="#2BD0D0"/>
<path d="M171.321 64.0956C171.321 64.0956 174.658 66.1388 174.358 72.7486C174.058 79.3585 172.177 89.3054 170.278 91.8814C168.379 94.4589 161.739 95.4683 161.739 95.4683C161.739 95.4683 165.361 104.838 168.057 107.256C170.753 109.673 165.348 118.581 160.091 115.659C154.834 112.735 148.74 105.395 148.74 105.395C148.74 105.395 153.124 96.5541 151.641 91.9009C150.159 87.2477 144.499 70.9169 148.74 66.4565C152.981 61.9946 162.124 55.6013 171.321 64.0956Z" fill="url(#paint16_linear_38_1366)"/>
<path opacity="0.25" d="M142.11 137.178L139.236 176.206L148.013 181.22L155.149 179.864L146.246 167.948L142.11 137.178ZM188.3 135.013C188.3 135.013 200.174 165.392 194.911 176.166L190.856 175.329L188.3 135.013Z" fill="white"/>
<path d="M156.158 186.306C156.158 186.306 151.672 190.476 153.674 193.719C155.676 196.962 158.067 196.869 160.06 195.419C162.053 193.969 165.968 190.527 170.632 192.107C175.297 193.687 176.43 194.692 176.43 194.692C176.43 194.692 178.886 193.019 178.249 191.342C177.611 189.665 172.733 184.231 171.319 183.527C169.906 182.823 164.037 184.986 164.037 184.986C164.037 184.986 159.726 183.717 156.158 186.307V186.306Z" fill="url(#paint17_linear_38_1366)"/>
<path d="M195.72 177.32C195.72 177.32 191.487 177.868 190.417 180.899C189.348 183.93 188.963 184.299 188.963 184.299C188.963 184.299 191.354 184.797 192.349 183.387C193.343 181.976 194.377 182.569 194.377 182.569L194.08 184.379C194.08 184.379 200.577 185.445 203.511 184.299C206.445 183.152 207.705 181.806 207.705 181.806L208.854 178.745C208.854 178.745 206.083 176.557 203.993 176.218C201.903 175.879 195.72 177.32 195.72 177.32Z" fill="url(#paint18_linear_38_1366)"/>
<path d="M218.066 209.378C218.066 209.378 232.608 221.426 231.316 237.722C230.023 254.019 228.124 278.217 228.124 278.217C228.124 278.217 222.259 280.904 218.373 278.217C214.487 275.529 212.133 238.76 210.208 235.249C208.283 231.737 196.699 215.907 184.322 214.543L218.066 209.378Z" fill="#25233A"/>
<path d="M145.203 220.971C145.203 220.971 152.128 228.115 164.472 230.359C176.817 232.602 182.571 234.474 186.343 245.957C190.116 257.441 193.735 282.156 194.92 284.918C196.104 287.68 201.14 286.271 201.14 286.271C201.14 286.271 203.989 282.737 203.989 263.085C203.989 235.688 205.749 230.073 199.405 223.191C193.061 216.308 187.29 214.432 187.29 214.432L145.203 220.971Z" fill="#3F3D56"/>
<path d="M194.93 285.909L196.137 296.159H198.397C198.397 296.159 212.949 297.016 213.405 296.646C213.861 296.276 212.704 288.529 207.191 288.748C201.677 288.967 201.316 287.287 201.316 287.287L194.93 285.909ZM219.462 278.801L221.795 288.797L247.28 285.034C247.28 285.034 248.177 278.469 240.104 279.12C237.973 279.289 236.386 280.9 233.824 280.914C231.263 280.928 228.81 279.8 227.518 277.967L219.462 278.801Z" fill="#25233A"/>
<path d="M306.189 153.306L211.878 158.832C209.597 158.962 207.65 157.048 207.528 154.553V81.2046C207.53 78.2438 209.694 75.8273 212.4 75.7644L306.325 73.6439C306.922 73.6308 307.516 73.7464 308.072 73.9839C308.628 74.2214 309.135 74.5762 309.565 75.028C310.435 75.943 310.937 77.1961 310.96 78.5131V147.803C310.957 150.732 308.862 153.148 306.189 153.306Z" fill="#2BD0D0"/>
<path d="M311.493 153.306L217.178 158.832C214.897 158.96 212.953 157.043 212.832 154.548V81.2046C212.829 78.243 214.994 75.8243 217.7 75.7644L311.638 73.6439C314.142 73.5934 316.211 75.7688 316.265 78.5087V147.803C316.261 150.732 314.167 153.148 311.493 153.306Z" fill="#2BD0D0"/>
<path d="M311.493 153.306L217.178 158.832C214.897 158.96 212.953 157.043 212.832 154.548V81.2046C212.829 78.243 214.994 75.8243 217.7 75.7644L311.638 73.6439C314.142 73.5934 316.211 75.7688 316.265 78.5087V147.803C316.261 150.732 314.167 153.148 311.493 153.306Z" fill="url(#paint19_linear_38_1366)"/>
<path d="M283.626 181.32L259.561 184.108C259.561 184.108 252.233 182.498 252.629 181.32C253.026 180.141 260.689 179.006 260.689 179.006V131.496C260.623 131.39 259.614 129.991 256.851 129.099C256.315 128.927 255.771 128.789 255.22 128.688C254.747 128.613 254.286 128.461 253.854 128.237C252.211 127.313 254.027 125.703 256.577 125.631C256.977 125.616 257.377 125.641 257.772 125.708H276.279C276.279 125.708 283.286 127.854 283.626 138.567C283.964 149.281 283.626 181.32 283.626 181.32Z" fill="#3A3054"/>
<path d="M263.885 181.42L259.458 184.108C259.458 184.108 252.239 182.498 252.629 181.319C253.02 180.141 260.582 179.005 260.582 179.005V131.491C260.491 131.382 259.384 130.121 256.801 129.096C255.84 128.722 254.853 128.434 253.849 128.233C252.23 127.309 254.018 125.699 256.532 125.627C258.672 125.948 262.887 128.535 263.161 130.011C263.434 131.487 263.885 181.42 263.885 181.42Z" fill="#51466B"/>
<path d="M174.377 280.855C173.792 281.577 173.521 281.844 173.866 281.25C174.045 281.135 174.215 281.003 174.377 280.855Z" fill="url(#paint20_linear_38_1366)"/>
</g>
<defs>
<linearGradient id="paint0_linear_38_1366" x1="134.595" y1="277.606" x2="141.888" y2="277.606" gradientUnits="userSpaceOnUse">
<stop stop-color="#183866"/>
<stop offset="1" stop-color="#1A7FC1"/>
</linearGradient>
<linearGradient id="paint1_linear_38_1366" x1="152.491" y1="279.05" x2="156.475" y2="279.05" gradientUnits="userSpaceOnUse">
<stop/>
<stop offset="0.99" stop-opacity="0"/>
</linearGradient>
<linearGradient id="paint2_linear_38_1366" x1="184.147" y1="219.298" x2="201.593" y2="226.791" gradientUnits="userSpaceOnUse">
<stop/>
<stop offset="0.99" stop-opacity="0"/>
</linearGradient>
<linearGradient id="paint3_linear_38_1366" x1="151.526" y1="105.325" x2="149.172" y2="104.736" gradientUnits="userSpaceOnUse">
<stop/>
<stop offset="0.99" stop-opacity="0"/>
</linearGradient>
<linearGradient id="paint4_linear_38_1366" x1="198.182" y1="264.425" x2="140.134" y2="247.012" gradientUnits="userSpaceOnUse">
<stop/>
<stop offset="0.99" stop-opacity="0"/>
</linearGradient>
<linearGradient id="paint5_linear_38_1366" x1="205.022" y1="40.6495" x2="202.353" y2="39.8757" gradientUnits="userSpaceOnUse">
<stop/>
<stop offset="0.99" stop-opacity="0"/>
</linearGradient>
<linearGradient id="paint6_linear_38_1366" x1="176.482" y1="224.982" x2="157.894" y2="229.52" gradientUnits="userSpaceOnUse">
<stop/>
<stop offset="0.99" stop-opacity="0"/>
</linearGradient>
<linearGradient id="paint7_linear_38_1366" x1="330.49" y1="220.066" x2="-6.72857" y2="205.158" gradientUnits="userSpaceOnUse">
<stop/>
<stop offset="1" stop-opacity="0"/>
</linearGradient>
<linearGradient id="paint8_linear_38_1366" x1="140.643" y1="161.167" x2="314.355" y2="161.167" gradientUnits="userSpaceOnUse">
<stop stop-color="#183866"/>
<stop offset="1" stop-color="#1A7FC1"/>
</linearGradient>
<linearGradient id="paint9_linear_38_1366" x1="200.86" y1="187.211" x2="203.315" y2="195.972" gradientUnits="userSpaceOnUse">
<stop/>
<stop offset="0.99" stop-opacity="0"/>
</linearGradient>
<linearGradient id="paint10_linear_38_1366" x1="170.38" y1="184.745" x2="227.795" y2="201.617" gradientUnits="userSpaceOnUse">
<stop/>
<stop offset="0.99" stop-opacity="0"/>
</linearGradient>
<linearGradient id="paint11_linear_38_1366" x1="169.661" y1="190.658" x2="169.168" y2="194.134" gradientUnits="userSpaceOnUse">
<stop/>
<stop offset="0.99" stop-opacity="0"/>
</linearGradient>
<linearGradient id="paint12_linear_38_1366" x1="82.5225" y1="237.07" x2="53.1184" y2="236.028" gradientUnits="userSpaceOnUse">
<stop/>
<stop offset="0.99" stop-opacity="0"/>
</linearGradient>
<linearGradient id="paint13_linear_38_1366" x1="87.2384" y1="264.944" x2="62.6731" y2="264.173" gradientUnits="userSpaceOnUse">
<stop/>
<stop offset="0.99" stop-opacity="0"/>
</linearGradient>
<linearGradient id="paint14_linear_38_1366" x1="39.147" y1="284.634" x2="38.092" y2="289.423" gradientUnits="userSpaceOnUse">
<stop/>
<stop offset="0.99" stop-opacity="0"/>
</linearGradient>
<linearGradient id="paint15_linear_38_1366" x1="32.8736" y1="68.6048" x2="30.4416" y2="82.3554" gradientUnits="userSpaceOnUse">
<stop/>
<stop offset="0.99" stop-opacity="0"/>
</linearGradient>
<linearGradient id="paint16_linear_38_1366" x1="147.182" y1="88.0791" x2="174.376" y2="88.0791" gradientUnits="userSpaceOnUse">
<stop stop-color="#ECC4D7"/>
<stop offset="0.42" stop-color="#EFD4D1"/>
<stop offset="1" stop-color="#F2EAC9"/>
</linearGradient>
<linearGradient id="paint17_linear_38_1366" x1="178.111" y1="162.165" x2="203.306" y2="162.165" gradientUnits="userSpaceOnUse">
<stop stop-color="#ECC4D7"/>
<stop offset="0.42" stop-color="#EFD4D1"/>
<stop offset="1" stop-color="#F2EAC9"/>
</linearGradient>
<linearGradient id="paint18_linear_38_1366" x1="213.689" y1="168.84" x2="233.58" y2="168.84" gradientUnits="userSpaceOnUse">
<stop stop-color="#ECC4D7"/>
<stop offset="0.42" stop-color="#EFD4D1"/>
<stop offset="1" stop-color="#F2EAC9"/>
</linearGradient>
<linearGradient id="paint19_linear_38_1366" x1="346.146" y1="159.145" x2="247.19" y2="219.582" gradientUnits="userSpaceOnUse">
<stop stop-color="#362958" stop-opacity="0.501"/>
<stop offset="1" stop-color="#34313D" stop-opacity="0"/>
</linearGradient>
<linearGradient id="paint20_linear_38_1366" x1="200.162" y1="33.8567" x2="199.375" y2="33.5892" gradientUnits="userSpaceOnUse">
<stop/>
<stop offset="0.99" stop-opacity="0"/>
</linearGradient>
<clipPath id="clip0_38_1366">
<rect width="344" height="348" fill="white"/>
</clipPath>
</defs>
</svg>
