<svg width="606" height="488" viewBox="0 0 606 488" fill="none" xmlns="http://www.w3.org/2000/svg">
<g clip-path="url(#clip0_1_7)">
<path d="M565.99 93.2495C545.48 71.0433 529.521 44.4601 505.081 26.4055C466.692 -2.0133 411.781 -4.33637 367.347 14.1176C322.911 32.5705 288.492 69.2845 265.957 110.712C254.102 132.509 244.849 156.253 227.356 174.133C212.568 189.239 193.043 198.966 174.542 209.535C144.713 226.53 116.022 247.001 96.8665 274.913C77.7127 302.825 69.3592 339.336 82.0329 370.493C90.5795 391.515 107.569 408.153 124.957 423.2C145.419 440.89 167.389 457.43 192.67 467.856C224.318 480.825 259.347 483.367 293.685 484.414C354.56 486.261 415.497 483.948 476.042 477.493C525.62 472.215 576.67 463.498 617.952 436.368C675.78 398.376 705.163 329.437 711.324 262.034C713.835 235.075 712.895 207.09 701.942 182.193C675.747 122.64 606.603 137.228 565.989 93.2495L565.99 93.2495Z" fill="#EFF1F7"/>
<path d="M174.908 206.8C174.908 206.8 158.803 203.994 154.401 215.649C149.999 227.304 154.854 267.38 154.854 267.38L215.229 311.116L174.908 206.8Z" fill="#3F3D56"/>
<path d="M251.9 383.525L228.178 390.741C224.731 391.781 221.089 389.851 220.03 386.426C218.986 382.997 220.924 379.372 224.367 378.319L248.057 371.097C251.501 370.057 255.143 371.982 256.204 375.405C257.259 378.829 255.336 382.458 251.9 383.525Z" fill="#2BD0D0"/>
<path d="M250.966 409.807C256.85 409.756 261.577 404.789 261.524 398.714C261.471 392.639 256.657 387.756 250.773 387.808C244.889 387.86 240.162 392.826 240.215 398.901C240.268 404.976 245.081 409.859 250.966 409.807Z" fill="#25233A"/>
<path d="M249.487 406.82C252.429 406.794 254.792 404.311 254.766 401.274C254.739 398.236 252.332 395.795 249.39 395.82C246.448 395.846 244.085 398.329 244.111 401.367C244.138 404.404 246.544 406.846 249.487 406.82Z" fill="#3F3D56"/>
<path d="M207.283 399.189C213.167 399.138 217.894 394.171 217.841 388.097C217.788 382.022 212.975 377.139 207.09 377.19C201.206 377.242 196.479 382.208 196.532 388.283C196.585 394.358 201.399 399.241 207.283 399.189Z" fill="#25233A"/>
<path d="M211.065 388.656C211.078 390.115 210.529 391.518 209.539 392.559C208.549 393.599 207.199 394.19 205.786 394.202C204.374 394.215 203.013 393.647 202.005 392.625C200.997 391.602 200.424 390.208 200.411 388.749C200.398 387.291 200.947 385.887 201.937 384.847C202.927 383.806 204.277 383.215 205.69 383.203C207.103 383.19 208.463 383.758 209.471 384.781C210.479 385.803 211.053 387.197 211.065 388.656Z" fill="url(#paint0_linear_1_7)"/>
<path d="M204.509 414.214C210.393 414.163 215.12 409.196 215.067 403.121C215.014 397.047 210.2 392.164 204.316 392.215C198.432 392.267 193.705 397.233 193.758 403.308C193.811 409.383 198.624 414.266 204.509 414.214Z" fill="#25233A"/>
<path d="M213.134 403.638C213.147 405.097 212.598 406.501 211.608 407.541C210.618 408.581 209.268 409.172 207.855 409.185C206.442 409.197 205.082 408.63 204.074 407.607C203.066 406.584 202.492 405.19 202.479 403.732C202.467 402.273 203.016 400.869 204.006 399.829C204.996 398.789 206.346 398.198 207.758 398.185C209.171 398.173 210.531 398.74 211.54 399.763C212.548 400.786 213.121 402.18 213.134 403.638Z" fill="#3F3D56"/>
<path d="M252.853 394.664L203.573 385.049C200.105 384.363 197.838 380.97 198.501 377.458C199.179 373.951 202.528 371.658 205.997 372.326L255.276 381.921C258.744 382.608 261.011 386.001 260.349 389.514C259.679 393.027 256.327 395.331 252.853 394.664Z" fill="#2BD0D0"/>
<path d="M222.036 314.057L235.596 313.938L236.113 372.936C236.147 376.802 233.14 379.962 229.397 379.995C227.599 380.01 225.869 379.287 224.587 377.986C223.305 376.684 222.575 374.91 222.559 373.055L222.043 314.057L222.036 314.057Z" fill="#2BD0D0"/>
<path d="M227.732 390.718L204.027 397.951C200.58 398.995 196.935 397.064 195.877 393.634C194.833 390.203 196.771 386.576 200.211 385.522L223.916 378.309C227.359 377.269 230.999 379.195 232.06 382.619C233.096 386.045 231.162 389.661 227.732 390.717L227.732 390.718Z" fill="#2BD0D0"/>
<path d="M232.39 390.229L229.368 390.807C228.45 390.979 227.516 391.045 226.584 391.003L227.846 390.764C228.682 390.613 229.496 390.352 230.268 389.988L232.39 390.229Z" fill="url(#paint1_linear_1_7)"/>
<path d="M256.486 376.496C256.502 378.039 256.017 379.544 255.109 380.77L235.176 376.594C235.673 375.847 236.027 375.008 236.218 374.123L248.44 370.093C249.227 369.84 250.056 369.757 250.876 369.85C251.696 369.942 252.488 370.208 253.204 370.63C254.664 371.484 255.751 372.932 256.226 374.652C256.39 375.25 256.477 375.872 256.486 376.496Z" fill="url(#paint2_linear_1_7)"/>
<path opacity="0.31" d="M221.816 375.164C221.67 374.652 221.593 374.12 221.589 373.586L221.076 315.065L226.832 315.015L227.385 378.083C227.33 378.393 227.351 378.71 227.448 379.012C226.558 378.702 225.627 378.538 224.688 378.525C224.019 378.491 223.346 378.497 222.677 378.543L223.088 378.439C223.341 378.397 222.159 376.356 221.816 375.164L221.816 375.164Z" fill="url(#paint3_linear_1_7)"/>
<path opacity="0.31" d="M257.884 393.546C256.949 394.077 255.895 394.36 254.82 394.369C254.388 394.371 253.956 394.332 253.531 394.25L231.789 390.034L229.978 389.687C229.362 390.172 228.665 390.536 227.921 390.76L226.849 391.087L204.605 397.948C201.211 398.985 197.621 397.066 196.579 393.656C198.529 395.444 201.468 395.586 203.579 393.996C206.285 392.076 217.1 389.134 223.226 387.566C226.122 386.843 228.321 384.472 228.838 381.517C228.852 381.344 228.875 381.171 228.911 380.999C229.943 382.103 231.834 383.336 235.241 384.367C243.633 386.883 257.234 388.478 257.234 388.478C257.234 388.478 259.708 390.877 257.884 393.546Z" fill="url(#paint4_linear_1_7)"/>
<path d="M259.525 391.732C259.013 392.522 258.362 393.206 257.606 393.748C258.253 393.084 258.893 392.412 259.525 391.732Z" fill="url(#paint5_linear_1_7)"/>
<path d="M222.857 374.611C223.138 375.784 223.715 376.859 224.531 377.727C224.328 377.767 224.12 377.822 223.911 377.883L203.362 384.223C200.187 383.438 198.073 380.404 198.414 377.12C198.755 373.837 201.445 371.313 204.713 371.211C205.152 371.208 205.59 371.248 206.022 371.331L222.857 374.611Z" fill="url(#paint6_linear_1_7)"/>
<path d="M252.067 93.1924C252.067 93.1924 251.617 72.3906 235.362 74.3281C219.105 76.2635 220.293 69.3649 213.349 70.1817C206.406 70.9996 198.395 78.099 200.789 86.7604C203.184 95.4217 194.749 97.4367 189.254 104.072C183.759 110.707 190.666 116.036 200.076 122.394C209.486 128.752 199.537 127.172 205.171 137.305C210.806 147.437 229.464 134.267 229.464 134.267L252.067 93.1924Z" fill="#503164"/>
<path d="M123.038 439.53L134.403 439.829L133.581 346.088C133.581 346.088 133.941 321.843 156.063 319.217C178.185 316.592 378.743 284.799 378.743 284.799C378.743 284.799 386.695 283.859 391.418 299.59C396.14 315.32 401.146 377.294 401.146 377.294L462.862 385.331C462.862 385.331 463.529 275.771 441.216 269.921C418.904 264.072 128.075 297.425 128.075 297.425C128.075 297.425 107.504 413.962 123.038 439.53Z" fill="#2BD0D0"/>
<path opacity="0.197" d="M123.038 439.53L134.403 439.829L133.581 346.088C133.581 346.088 133.941 321.843 156.063 319.217C178.185 316.592 378.743 284.799 378.743 284.799C378.743 284.799 386.695 283.859 391.418 299.59C396.14 315.32 401.146 377.294 401.146 377.294L462.862 385.331C462.862 385.331 463.529 275.771 441.216 269.921C418.904 264.072 128.075 297.425 128.075 297.425C128.075 297.425 107.504 413.962 123.038 439.53Z" fill="url(#paint7_linear_1_7)"/>
<path d="M63.1334 309.233C63.1334 309.233 68.4188 277.429 107.477 268.764L383.415 233.702C383.415 233.702 410.521 232.305 422.995 239.943C435.468 247.58 453.23 253.846 460.797 288.837C468.363 323.828 470.623 383.696 470.623 383.696L463.765 384.856C463.765 384.856 452.792 276.508 442.112 269.735C431.434 262.964 144.676 307.597 144.676 307.597C144.676 307.597 124.797 311.86 123.329 342.318C121.862 372.775 124.175 438.919 124.175 438.919L64.0556 414.502L63.1334 309.233Z" fill="#2BD0D0"/>
<path opacity="0.19" d="M346.815 246.805C332.5 245.031 318.074 243.781 303.671 244.463C292.846 244.991 282.102 246.618 271.378 248.239L176.793 262.571C175.187 262.815 173.36 263.204 172.568 264.652C171.051 267.418 174.699 270.098 177.645 271.12C209.232 282.1 242.974 293.205 275.317 284.895C290.104 281.096 303.802 273.357 318.81 270.579C333.818 267.8 349.269 270.102 364.245 267.474C378.324 265.006 391.691 258.225 405.982 258.034C410.364 257.996 414.881 258.534 419.026 257.081C423.172 255.63 426.81 251.274 425.621 246.973C412.199 246.613 397.114 244.216 383.977 247.076C370.975 249.902 359.86 246.691 346.815 246.805Z" fill="url(#paint8_linear_1_7)"/>
<path d="M261.304 263.091L261.875 265.2C261.875 265.2 278.315 275.229 278.215 275.558C278.115 275.887 345.897 258.725 345.897 258.725L347.435 253.956L261.304 263.091Z" fill="#2BD0D0"/>
<path d="M261.304 263.091L261.875 265.2C261.875 265.2 278.315 275.229 278.215 275.558C278.115 275.887 345.897 258.725 345.897 258.725L347.435 253.956L261.304 263.091Z" fill="url(#paint9_linear_1_7)"/>
<path d="M262.273 263.067L322.312 249.176L347.435 254.01L279.242 271.554L262.273 263.067Z" fill="#2BD0D0"/>
<path d="M262.273 263.067L322.312 249.176L347.435 254.01L279.242 271.554L262.273 263.067Z" fill="url(#paint10_linear_1_7)"/>
<path d="M242.836 274.357L256.843 274.747C256.843 274.747 260.402 274.943 261.294 271.99C262.189 269.037 255.509 262.881 254.799 262.77C254.088 262.658 235.705 268.157 238.409 273.47L242.836 274.357Z" fill="#2BD0D0"/>
<path d="M242.836 274.357L256.843 274.747C256.843 274.747 260.402 274.943 261.294 271.99C262.189 269.037 255.509 262.881 254.799 262.77C254.088 262.658 235.705 268.157 238.409 273.47L242.836 274.357Z" fill="url(#paint11_linear_1_7)"/>
<path d="M80.5828 421.356L73.9364 443.092C54.171 450.617 37.2464 443.414 37.2464 443.414L32.1443 420.724C32.1443 420.724 56.9521 429.067 80.5828 421.356Z" fill="#2BD0D0"/>
<path d="M80.5828 421.356L73.9364 443.092C54.171 450.617 37.2464 443.414 37.2464 443.414L32.1443 420.724C32.1443 420.724 56.9521 429.067 80.5828 421.356Z" fill="url(#paint12_linear_1_7)"/>
<path d="M88.1558 401.233L86.092 418.195L80.5141 421.252C56.7054 428.881 31.6738 420.642 31.6738 420.642L27.3416 417.396L25.1978 401.785L88.1558 401.233Z" fill="#2BD0D0"/>
<path d="M88.1558 401.233L86.092 418.195L80.5141 421.252C56.7054 428.881 31.6738 420.642 31.6738 420.642L27.3416 417.396L25.1978 401.785L88.1558 401.233Z" fill="url(#paint13_linear_1_7)"/>
<path d="M56.7206 406.509C74.106 406.356 88.1761 403.547 88.1471 400.233C88.118 396.92 74.0009 394.357 56.6155 394.509C39.2301 394.661 25.16 397.471 25.189 400.785C25.2181 404.098 39.3352 406.661 56.7206 406.509Z" fill="#2BD0D0"/>
<path d="M56.7206 406.509C74.106 406.356 88.1761 403.547 88.1471 400.233C88.118 396.92 74.0009 394.357 56.6155 394.509C39.2301 394.661 25.16 397.471 25.189 400.785C25.2181 404.098 39.3352 406.661 56.7206 406.509Z" fill="url(#paint14_linear_1_7)"/>
<path d="M41.1374 270.67C38.0421 269.182 34.7185 268.068 32.0326 265.88C26.6205 261.427 25.1908 253.691 23.4474 246.756C21.7051 239.82 18.3827 232.207 11.7334 230.271C9.24539 229.556 6.33735 229.873 4.46662 231.725C2.49505 233.675 2.11898 236.855 2.68789 239.655C3.25583 242.454 4.60189 244.954 5.64897 247.603C8.09297 253.759 8.87885 260.483 7.92335 267.061C7.13273 272.457 5.17852 277.936 6.51011 283.208C8.76988 292.152 19.6815 297.313 20.0627 306.547C20.3226 312.778 15.4363 318.589 16.6087 324.713C17.4737 329.243 21.5273 332.75 21.7856 337.36C22.0736 342.588 17.3546 347.054 17.631 352.282C17.9063 357.51 22.9639 360.961 26.2815 365.046C29.0648 368.482 30.737 372.731 31.0637 377.197C31.2606 379.987 30.9401 382.881 31.8398 385.518C32.496 387.445 33.7889 389.076 34.796 390.808C35.907 392.678 36.7491 394.705 38.0816 396.435C39.7491 398.586 42.006 400.169 44.5577 400.977C47.1093 401.784 49.8371 401.778 52.3848 400.96C53.3409 394.002 52.3896 386.92 52.6099 379.893C53.0467 366.279 57.8828 352.521 54.595 339.339C53.3893 334.505 51.1106 329.926 50.6699 324.96C50.2794 320.523 51.379 316.115 52.1339 311.729C53.6916 302.671 53.5845 293.322 52.8322 284.184C52.2388 276.933 47.2978 273.633 41.1383 270.67L41.1374 270.67Z" fill="#2BD0D0"/>
<path d="M60.9296 306.235C60.9313 312.297 62.3258 318.553 60.4952 324.324C59.1096 328.699 56.0104 332.298 54.4314 336.601C50.7891 346.532 55.9036 357.589 54.9724 368.167C54.5844 372.525 53.172 376.721 52.2951 381.004C51.2066 386.427 50.977 391.997 51.6153 397.496C51.5641 398.499 51.8656 399.488 52.4643 400.281C53.063 401.073 53.9186 401.616 54.8738 401.81C58.041 403.023 61.3183 403.904 64.6561 404.439C63.4732 398.04 64.6023 391.416 67.83 385.821C72.8628 377.146 82.7379 371.243 84.4991 361.315C85.6898 354.592 82.7195 347.806 82.866 340.973C82.9748 336.425 84.4538 332.026 87.0973 328.388C89.4711 325.14 92.7027 322.615 94.9089 319.249C100.21 311.136 98.4408 300.369 96.7591 290.737C95.0765 281.105 94.0523 270.012 100.301 262.648C102.278 260.321 104.864 258.564 106.653 256.079C110.637 250.54 109.544 242.071 104.811 237.193C100.08 232.314 92.5183 231.02 86.1611 233.24C83.4791 234.08 81.1195 235.765 79.413 238.059C76.2337 242.801 77.5784 249.23 78.9931 254.821C80.2271 259.677 81.2362 265.284 79.65 270.206C78.4645 273.867 75.3959 275.873 72.7962 278.438C69.1126 282.011 66.1637 286.314 64.125 291.089C62.0863 295.865 60.9996 301.016 60.9296 306.235Z" fill="#2BD0D0"/>
<path d="M54.9206 360.045C54.0698 366.645 52.8166 373.303 52.6052 379.917L52.6111 380.582C52.5986 380.746 52.5638 380.907 52.5078 381.062C51.4203 386.49 51.1859 392.063 51.8135 397.569C51.8562 398.462 52.0818 399.335 52.4752 400.13C52.4467 400.409 52.4103 400.681 52.375 400.961C49.8265 401.779 47.0979 401.784 44.5454 400.977C41.993 400.169 39.7352 398.586 38.067 396.434C36.7732 394.704 35.8905 392.678 34.7805 390.807C33.7413 389.068 32.4794 387.437 31.8233 385.516C30.9234 382.865 31.243 379.985 31.0462 377.195C30.7198 372.728 29.0472 368.478 26.263 365.041C22.9447 360.983 17.8799 357.598 17.6096 352.283C17.3393 346.968 22.0541 342.588 21.7652 337.359C21.5078 332.749 17.4523 329.243 16.5883 324.711C15.4139 318.586 20.3216 312.775 20.0432 306.543C19.662 297.308 8.74652 292.147 6.48576 283.201C5.16094 277.928 7.10837 272.448 7.89899 267.052C8.85961 260.482 8.08254 253.765 5.64994 247.611C4.60286 244.962 3.25686 242.469 2.68789 239.662C2.11989 236.856 2.49505 233.682 4.46752 231.724C6.37119 229.873 9.24726 229.556 11.7362 230.271C18.3943 232.207 21.7043 239.848 23.4544 246.784C25.2045 253.721 26.6284 261.451 32.0415 265.909C34.7169 268.113 38.0529 269.213 41.1502 270.702C47.3174 273.665 52.2603 276.965 52.8483 284.15C53.5677 293.289 53.7077 302.639 52.15 311.698C51.3942 316.085 50.3072 320.495 50.6851 324.93C51.063 329.367 52.9614 333.551 54.2147 337.846C54.3536 338.33 54.4916 338.821 54.6111 339.312C56.2837 346.136 55.8261 353.058 54.9206 360.045Z" fill="#30C59B"/>
<path d="M52.0276 399.55C51.7278 398.756 51.5562 397.917 51.5195 397.066C51.0561 391.71 51.2159 386.288 51.996 381.014C52.0169 380.859 52.0436 380.704 52.0694 380.548C51.9593 386.896 52.5432 393.289 52.0276 399.55Z" fill="url(#paint15_linear_1_7)"/>
<path d="M106.638 256.08C104.848 258.565 102.256 260.32 100.276 262.649C94.0184 270.007 95.0446 281.105 96.7292 290.738C98.4128 300.369 100.185 311.136 94.875 319.25C92.6667 322.59 89.4305 325.14 87.0518 328.388C84.4044 332.025 82.9225 336.424 82.8128 340.974C82.6673 347.806 85.6424 354.592 84.4498 361.315C82.6856 371.244 72.7952 377.16 67.7546 385.822C64.5347 391.42 63.4128 398.043 64.601 404.44C61.2666 403.904 57.9929 403.023 54.8294 401.81C53.9655 401.554 53.1796 401.074 52.5466 400.415C52.4566 400.308 52.3756 400.193 52.3043 400.072C51.8977 399.285 51.6592 398.418 51.605 397.528C50.9765 392.027 51.2174 386.458 52.3187 381.037C52.3493 380.877 52.3866 380.718 52.424 380.558C53.3043 376.44 54.624 372.399 54.9999 368.199C55.1955 365.477 55.1196 362.741 54.7734 360.035C55.6867 353.056 56.1482 346.14 54.4441 339.369C54.3236 338.88 54.1837 338.389 54.0438 337.905C54.1631 337.479 54.3008 337.053 54.4589 336.634C56.0408 332.331 59.1448 328.732 60.5314 324.357C62.3591 318.585 60.9685 312.33 60.9667 306.268C60.9593 295.797 65.4579 285.647 72.7624 278.438C75.365 275.873 78.4384 273.868 79.6259 270.206C81.215 265.285 80.1788 259.678 78.968 254.821C77.5455 249.23 76.1854 242.802 79.3898 238.06C80.982 235.709 83.5112 234.166 86.1476 233.24C92.4893 231.02 100.095 232.314 104.828 237.193C109.561 242.071 110.629 250.572 106.638 256.08Z" fill="#30C59B"/>
<path d="M220.187 150.213C220.187 150.213 193.281 154.749 181.087 185.534C168.893 216.319 175.707 254.266 175.954 257.608C176.201 260.95 214.3 275.123 225.155 275.028C236.011 274.933 238.173 263.685 238.173 263.685L218.918 255.42L277.137 247.961L287.602 247.869L281.926 257.951C281.926 257.951 293.311 259.081 300.915 259.296C308.519 259.51 313.546 243.945 314.33 236.218C315.114 228.494 280.091 161.058 274.912 157.091C269.734 153.123 255.694 143.442 220.187 150.213Z" fill="#2BD0D0"/>
<path d="M251.472 92.5666C251.472 92.5666 256.371 95.3538 256.013 104.512C255.655 113.671 253.028 127.471 250.286 131.063C247.543 134.658 237.854 136.141 237.854 136.141C237.854 136.141 243.26 149.071 247.228 152.385C251.195 155.699 243.407 168.106 235.692 164.126C227.978 160.144 218.985 150.055 218.985 150.055C218.985 150.055 225.282 137.755 223.06 131.329C220.839 124.903 212.372 102.357 218.513 96.1254C224.654 89.8914 237.933 80.9197 251.472 92.5666Z" fill="url(#paint16_linear_1_7)"/>
<path opacity="0.25" d="M209.685 194.161L205.961 248.25L218.844 255.083L229.251 253.113L216.1 236.724L209.685 194.161ZM277.136 190.57C277.136 190.57 294.851 232.493 287.292 247.483L281.358 246.375L277.136 190.57Z" fill="white"/>
<path d="M230.804 262.023C230.804 262.023 224.301 267.855 227.265 272.322C230.23 276.787 233.72 276.628 236.614 274.595C239.508 272.56 245.186 267.743 252.019 269.872C258.852 272 260.52 273.377 260.52 273.377C260.52 273.377 264.088 271.03 263.137 268.715C262.185 266.4 254.992 258.936 252.918 257.979C250.845 257.022 242.298 260.093 242.298 260.093C242.298 260.093 235.984 258.391 230.804 262.024L230.804 262.023Z" fill="url(#paint17_linear_1_7)"/>
<path d="M288.489 249.07C288.489 249.07 282.311 249.884 280.786 254.095C279.26 258.307 278.703 258.823 278.703 258.823C278.703 258.823 282.202 259.483 283.637 257.516C285.073 255.55 286.59 256.357 286.59 256.357L286.179 258.868C286.179 258.868 295.682 260.262 299.955 258.637C304.228 257.011 306.052 255.131 306.052 255.131L307.693 250.876C307.693 250.876 303.618 247.882 300.561 247.439C297.504 246.995 288.489 249.07 288.489 249.07Z" fill="url(#paint18_linear_1_7)"/>
<path d="M321.521 293.185C321.521 293.185 342.912 309.685 341.221 332.273C339.531 354.86 337.051 388.398 337.051 388.398C337.051 388.398 328.515 392.195 322.806 388.523C317.095 384.851 313.212 333.955 310.356 329.117C307.501 324.278 290.387 302.501 272.29 300.77L321.521 293.185Z" fill="#25233A"/>
<path d="M215.221 310.174C215.221 310.174 225.424 319.98 243.484 322.929C261.545 325.878 269.974 328.398 275.624 344.254C281.275 360.11 286.861 394.294 288.625 398.105C290.389 401.916 297.729 399.899 297.729 399.899C297.729 399.899 301.847 394.968 301.609 367.75C301.276 329.805 303.78 322.005 294.429 312.555C285.078 303.103 276.625 300.578 276.625 300.578L215.221 310.174Z" fill="#3F3D56"/>
<path d="M288.653 399.477L290.54 413.658L293.841 413.629C293.841 413.629 315.11 414.63 315.772 414.112C316.434 413.593 314.65 402.878 306.598 403.252C298.546 403.626 297.998 401.304 297.998 401.304L288.653 399.477ZM324.404 389.319L327.933 403.133L365.117 397.595C365.117 397.595 366.348 388.491 354.562 389.496C351.451 389.757 349.152 392.008 345.41 392.061C341.669 392.114 338.072 390.582 336.162 388.06L324.404 389.319Z" fill="#25233A"/>
<path d="M449.576 214.397L311.869 223.258C308.539 223.468 305.672 220.842 305.462 217.388L304.572 115.799C304.539 111.699 307.671 108.324 311.623 108.202L448.808 104.063C449.681 104.038 450.549 104.19 451.364 104.512C452.179 104.834 452.925 105.319 453.558 105.939C454.84 107.195 455.588 108.924 455.639 110.748L456.48 206.715C456.51 210.771 453.48 214.144 449.576 214.397Z" fill="#2BD0D0"/>
<path d="M457.325 214.329L319.611 223.191C316.281 223.397 313.417 220.767 313.211 217.313L312.321 115.731C312.281 111.63 315.413 108.252 319.366 108.134L456.57 103.995C460.227 103.893 463.277 106.88 463.388 110.674L464.228 206.647C464.259 210.704 461.229 214.077 457.325 214.329Z" fill="#2BD0D0"/>
<path d="M457.325 214.329L319.611 223.191C316.281 223.397 313.417 220.767 313.211 217.313L312.321 115.731C312.281 111.63 315.413 108.252 319.366 108.134L456.57 103.995C460.227 103.893 463.277 106.88 463.388 110.674L464.228 206.647C464.259 210.704 461.229 214.077 457.325 214.329Z" fill="url(#paint19_linear_1_7)"/>
<path d="M416.954 253.485L381.834 257.655C381.834 257.655 371.108 255.519 371.673 253.882C372.239 252.244 383.419 250.574 383.419 250.574L382.843 184.772C382.745 184.627 381.254 182.702 377.207 181.503C376.423 181.27 375.626 181.086 374.82 180.954C374.127 180.855 373.453 180.651 372.819 180.347C370.407 179.088 373.04 176.835 376.765 176.702C377.349 176.676 377.934 176.706 378.512 176.793L405.548 176.556C405.548 176.556 415.81 179.439 416.436 194.272C417.061 209.107 416.954 253.485 416.954 253.485Z" fill="#3A3054"/>
<path d="M388.118 253.877L381.682 257.656C381.682 257.656 371.117 255.519 371.673 253.881C372.23 252.244 383.263 250.574 383.263 250.574L382.687 184.768C382.552 184.617 380.92 182.885 377.134 181.498C375.725 180.993 374.28 180.606 372.811 180.341C370.435 179.082 373.027 176.829 376.698 176.697C379.829 177.114 386.018 180.643 386.436 182.685C386.852 184.725 388.118 253.877 388.118 253.877Z" fill="#51466B"/>
<path d="M258.565 392.74C257.721 393.748 257.328 394.121 257.824 393.294C258.085 393.132 258.332 392.947 258.565 392.74Z" fill="url(#paint20_linear_1_7)"/>
</g>
<defs>
<linearGradient id="paint0_linear_1_7" x1="200.411" y1="388.749" x2="211.065" y2="388.656" gradientUnits="userSpaceOnUse">
<stop stop-color="#183866"/>
<stop offset="1" stop-color="#1A7FC1"/>
</linearGradient>
<linearGradient id="paint1_linear_1_7" x1="226.573" y1="390.521" x2="232.392" y2="390.47" gradientUnits="userSpaceOnUse">
<stop/>
<stop offset="0.99" stop-opacity="0"/>
</linearGradient>
<linearGradient id="paint2_linear_1_7" x1="272.091" y1="307.359" x2="297.238" y2="318.486" gradientUnits="userSpaceOnUse">
<stop/>
<stop offset="0.99" stop-opacity="0"/>
</linearGradient>
<linearGradient id="paint3_linear_1_7" x1="223.054" y1="149.923" x2="219.631" y2="149.052" gradientUnits="userSpaceOnUse">
<stop/>
<stop offset="0.99" stop-opacity="0"/>
</linearGradient>
<linearGradient id="paint4_linear_1_7" x1="293.142" y1="369.68" x2="208.891" y2="343.832" gradientUnits="userSpaceOnUse">
<stop/>
<stop offset="0.99" stop-opacity="0"/>
</linearGradient>
<linearGradient id="paint5_linear_1_7" x1="300.42" y1="59.6624" x2="296.545" y2="58.5142" gradientUnits="userSpaceOnUse">
<stop/>
<stop offset="0.99" stop-opacity="0"/>
</linearGradient>
<linearGradient id="paint6_linear_1_7" x1="260.963" y1="315.329" x2="234.041" y2="322.514" gradientUnits="userSpaceOnUse">
<stop/>
<stop offset="0.99" stop-opacity="0"/>
</linearGradient>
<linearGradient id="paint7_linear_1_7" x1="485.886" y1="306.549" x2="-6.83235" y2="287.898" gradientUnits="userSpaceOnUse">
<stop/>
<stop offset="1" stop-opacity="0"/>
</linearGradient>
<linearGradient id="paint8_linear_1_7" x1="207.834" y1="227.403" x2="461.601" y2="225.18" gradientUnits="userSpaceOnUse">
<stop stop-color="#183866"/>
<stop offset="1" stop-color="#1A7FC1"/>
</linearGradient>
<linearGradient id="paint9_linear_1_7" x1="296.118" y1="262.704" x2="299.473" y2="274.9" gradientUnits="userSpaceOnUse">
<stop/>
<stop offset="0.99" stop-opacity="0"/>
</linearGradient>
<linearGradient id="paint10_linear_1_7" x1="251.561" y1="259.679" x2="334.918" y2="284.716" gradientUnits="userSpaceOnUse">
<stop/>
<stop offset="0.99" stop-opacity="0"/>
</linearGradient>
<linearGradient id="paint11_linear_1_7" x1="250.583" y1="267.878" x2="249.976" y2="272.707" gradientUnits="userSpaceOnUse">
<stop/>
<stop offset="0.99" stop-opacity="0"/>
</linearGradient>
<linearGradient id="paint12_linear_1_7" x1="123.849" y1="333.273" x2="80.8864" y2="332.044" gradientUnits="userSpaceOnUse">
<stop/>
<stop offset="0.99" stop-opacity="0"/>
</linearGradient>
<linearGradient id="paint13_linear_1_7" x1="131.077" y1="371.818" x2="95.1841" y2="370.945" gradientUnits="userSpaceOnUse">
<stop/>
<stop offset="0.99" stop-opacity="0"/>
</linearGradient>
<linearGradient id="paint14_linear_1_7" x1="61.0615" y1="399.704" x2="59.728" y2="406.381" gradientUnits="userSpaceOnUse">
<stop/>
<stop offset="0.99" stop-opacity="0"/>
</linearGradient>
<linearGradient id="paint15_linear_1_7" x1="49.2759" y1="100.584" x2="46.24" y2="119.715" gradientUnits="userSpaceOnUse">
<stop/>
<stop offset="0.99" stop-opacity="0"/>
</linearGradient>
<linearGradient id="paint16_linear_1_7" x1="216.499" y1="126.093" x2="256.226" y2="125.745" gradientUnits="userSpaceOnUse">
<stop stop-color="#ECC4D7"/>
<stop offset="0.42" stop-color="#EFD4D1"/>
<stop offset="1" stop-color="#F2EAC9"/>
</linearGradient>
<linearGradient id="paint17_linear_1_7" x1="262.581" y1="228.307" x2="299.387" y2="227.984" gradientUnits="userSpaceOnUse">
<stop stop-color="#ECC4D7"/>
<stop offset="0.42" stop-color="#EFD4D1"/>
<stop offset="1" stop-color="#F2EAC9"/>
</linearGradient>
<linearGradient id="paint18_linear_1_7" x1="314.636" y1="237.096" x2="343.693" y2="236.841" gradientUnits="userSpaceOnUse">
<stop stop-color="#ECC4D7"/>
<stop offset="0.42" stop-color="#EFD4D1"/>
<stop offset="1" stop-color="#F2EAC9"/>
</linearGradient>
<linearGradient id="paint19_linear_1_7" x1="508.018" y1="221.973" x2="368.537" y2="313.563" gradientUnits="userSpaceOnUse">
<stop stop-color="#362958" stop-opacity="0.501"/>
<stop offset="1" stop-color="#34313D" stop-opacity="0"/>
</linearGradient>
<linearGradient id="paint20_linear_1_7" x1="293.237" y1="50.3167" x2="292.097" y2="49.9192" gradientUnits="userSpaceOnUse">
<stop/>
<stop offset="0.99" stop-opacity="0"/>
</linearGradient>
<clipPath id="clip0_1_7">
<rect width="603" height="482" fill="white" transform="translate(0.420044 5.98645) rotate(-0.501913)"/>
</clipPath>
</defs>
</svg>
