<svg width="121" height="33" viewBox="0 0 121 33" fill="none" xmlns="http://www.w3.org/2000/svg">
<g clip-path="url(#clip0_25_858)">
<path d="M16.715 8.93199C16.647 8.84199 16.409 8.67199 16.001 8.42199C15.593 8.17199 15.083 7.91199 14.471 7.63999C13.859 7.36799 13.19 7.12999 12.465 6.92599C11.7572 6.72445 11.025 6.62148 10.289 6.61999C8.29403 6.61999 7.29703 7.28899 7.29703 8.62599C7.29703 9.03399 7.40403 9.37399 7.62003 9.64599C7.83503 9.91799 8.15203 10.162 8.57203 10.377C8.99103 10.592 9.51803 10.791 10.152 10.972L11.558 11.365L12.363 11.584C13.519 11.901 14.561 12.247 15.491 12.621C16.42 12.995 17.208 13.46 17.854 14.015C18.4985 14.5682 19.0098 15.2597 19.35 16.038C19.7 16.831 19.877 17.783 19.877 18.894C19.877 20.254 19.622 21.404 19.112 22.345C18.602 23.285 17.927 24.045 17.089 24.623C16.249 25.201 15.287 25.62 14.199 25.881C13.111 26.141 11.989 26.272 10.833 26.272C8.99124 26.2615 7.16004 25.9926 5.39303 25.473C4.50903 25.213 3.65303 24.901 2.82603 24.538C2.02398 24.1895 1.25546 23.7684 0.530029 23.28L2.97803 18.418C3.06803 18.531 3.36303 18.747 3.86203 19.064C4.36003 19.381 4.97803 19.699 5.71503 20.016C6.45103 20.333 7.27303 20.616 8.18003 20.866C9.08603 21.116 10.004 21.24 10.934 21.24C12.906 21.24 13.892 20.64 13.892 19.438C13.892 18.985 13.744 18.611 13.45 18.316C13.155 18.021 12.747 17.755 12.226 17.517C11.7373 17.2982 11.2349 17.1111 10.722 16.957L9.02003 16.462L8.04403 16.174C6.93303 15.834 5.97003 15.466 5.15403 15.069C4.33803 14.672 3.66403 14.213 3.13103 13.692C2.60791 13.1851 2.20179 12.5701 1.94103 11.89C1.68003 11.21 1.55003 10.417 1.55003 9.50999C1.55003 8.23999 1.78803 7.11899 2.26403 6.14399C2.72292 5.19107 3.38432 4.34982 4.20203 3.67899C5.04254 2.9972 6.0064 2.48353 7.04103 2.16599C8.11703 1.82599 9.25603 1.65599 10.458 1.65599C11.296 1.65599 12.124 1.73599 12.94 1.89399C13.756 2.05299 14.538 2.25699 15.286 2.50599C16.034 2.75599 16.731 3.03899 17.376 3.35599C18.023 3.67299 18.618 3.99099 19.162 4.30799L16.714 8.93199H16.715ZM40.139 26H34.699V15.97C34.699 14.814 34.472 13.964 34.019 13.42C33.565 12.876 32.942 12.604 32.149 12.604C31.831 12.604 31.486 12.678 31.112 12.825C30.7186 12.9838 30.3518 13.2016 30.024 13.471C29.6617 13.7653 29.336 14.102 29.054 14.474C28.757 14.8638 28.5272 15.3005 28.374 15.766V26H22.934V1.17999H28.374V11.142C29.0048 10.102 29.9035 9.25062 30.976 8.67699C32.052 8.09899 33.236 7.80999 34.529 7.80999C35.73 7.80999 36.699 8.01999 37.436 8.43899C38.172 8.85899 38.739 9.39099 39.136 10.037C39.532 10.683 39.799 11.408 39.935 12.213C40.071 13.018 40.139 13.805 40.139 14.576V26ZM52.479 26.34C50.96 26.34 49.606 26.09 48.416 25.592C47.226 25.093 46.223 24.419 45.406 23.569C44.5917 22.721 43.9612 21.714 43.554 20.611C43.1337 19.4855 42.9203 18.2934 42.924 17.092C42.924 15.868 43.134 14.695 43.554 13.573C43.9615 12.4699 44.5923 11.4629 45.407 10.615C46.223 9.76499 47.226 9.08499 48.416 8.57499C49.606 8.06499 50.96 7.80999 52.479 7.80999C53.998 7.80999 55.346 8.06499 56.525 8.57499C57.704 9.08499 58.701 9.76499 59.517 10.615C60.3331 11.4651 60.9691 12.4712 61.387 13.573C61.8179 14.696 62.0369 15.8892 62.033 17.092C62.0368 18.2934 61.8233 19.4855 61.403 20.611C60.9959 21.714 60.3654 22.721 59.551 23.569C58.735 24.419 57.731 25.093 56.541 25.592C55.351 26.091 53.998 26.34 52.479 26.34ZM48.5 17.092C48.5 18.497 48.874 19.625 49.622 20.475C50.37 21.325 51.322 21.75 52.478 21.75C53.0183 21.7558 53.5529 21.6396 54.042 21.41C54.518 21.183 54.932 20.866 55.282 20.458C55.65 20.0214 55.9329 19.5198 56.116 18.979C56.3248 18.372 56.4283 17.7338 56.422 17.092C56.422 15.687 56.048 14.559 55.3 13.709C54.552 12.859 53.611 12.434 52.478 12.434C51.9391 12.4297 51.4058 12.543 50.9153 12.7662C50.4247 12.9893 49.9888 13.3169 49.638 13.726C49.2708 14.1627 48.9886 14.6644 48.806 15.205C48.5972 15.812 48.4938 16.4501 48.5 17.092ZM76.276 12.808C74.961 12.831 73.771 13.046 72.706 13.454C71.641 13.862 70.87 14.474 70.394 15.29V26H64.954V8.14999H69.952V11.754C70.564 10.553 71.352 9.61199 72.315 8.93199C73.278 8.25199 74.304 7.90099 75.392 7.87799H75.936C76.049 7.87799 76.163 7.88899 76.276 7.91199V12.808ZM90.35 25.048C89.5136 25.3959 88.6563 25.6912 87.783 25.932C86.82 26.204 85.851 26.34 84.876 26.34C84.196 26.34 83.556 26.255 82.956 26.085C82.3774 25.9267 81.8384 25.6487 81.374 25.269C80.921 24.895 80.564 24.402 80.304 23.79C80.042 23.178 79.912 22.441 79.912 21.58V12.264H77.634V8.14999H79.912V2.47199H85.352V8.14999H88.99V12.264H85.352V19.71C85.352 20.3 85.499 20.724 85.794 20.985C86.089 21.245 86.463 21.376 86.916 21.376C87.324 21.376 87.743 21.308 88.174 21.172C88.604 21.036 88.979 20.889 89.296 20.73L90.35 25.048ZM92.627 1.17999H98.067V19.642C98.067 21.002 98.645 21.682 99.801 21.682C100.073 21.682 100.373 21.642 100.702 21.563C101.031 21.483 101.332 21.365 101.603 21.206L102.317 25.286C101.637 25.603 100.855 25.853 99.971 26.034C99.087 26.215 98.26 26.306 97.489 26.306C95.925 26.306 94.724 25.898 93.885 25.082C93.046 24.266 92.627 23.087 92.627 21.546V1.17999ZM104.083 28.686C104.537 28.845 104.962 28.958 105.358 29.026C105.712 29.09 106.07 29.1241 106.429 29.128C107.087 29.128 107.597 28.901 107.959 28.448C108.322 27.995 108.651 27.178 108.945 26L102.145 8.14999H107.755L111.903 21.342L115.473 8.14999H120.573L113.773 28.89C113.324 30.3254 112.431 31.5813 111.223 32.477C109.999 33.395 108.549 33.854 106.871 33.854C106.409 33.8533 105.949 33.8135 105.494 33.735C105.012 33.6508 104.54 33.5199 104.084 33.344V28.686H104.083Z" fill="#F0F1F6"/>
</g>
<defs>
<clipPath id="clip0_25_858">
<rect width="121" height="33" fill="white"/>
</clipPath>
</defs>
</svg>
