<svg width="608" height="488" viewBox="0 0 608 488" fill="none" xmlns="http://www.w3.org/2000/svg">
<g clip-path="url(#clip0_1_7)">
<path d="M565.57 92.5452C545.06 70.339 529.101 43.7558 504.662 25.7012C466.273 -2.71764 411.361 -5.04071 366.927 13.4132C322.491 31.8662 288.072 68.5801 265.537 110.008C253.682 131.805 244.43 155.549 226.936 173.429C212.148 188.535 192.623 198.261 174.122 208.831C144.293 225.826 115.602 246.297 96.4466 274.209C77.2928 302.12 68.9392 338.632 81.6129 369.788C90.1596 390.811 107.149 407.449 124.537 422.495C144.999 440.186 166.97 456.726 192.25 467.152C223.898 480.121 258.927 482.662 293.265 483.71C354.14 485.556 415.077 483.243 475.622 476.789C525.2 471.51 576.25 462.794 617.532 435.664C675.361 397.672 704.743 328.733 710.905 261.33C713.415 234.37 712.475 206.386 701.522 181.489C675.327 121.936 606.183 136.524 565.569 92.5452L565.57 92.5452Z" fill="#EFF1F7"/>
<path d="M174.488 206.096C174.488 206.096 158.383 203.289 153.981 214.945C149.579 226.6 154.434 266.676 154.434 266.676L214.81 310.412L174.488 206.096Z" fill="#3F3D56"/>
<path d="M251.48 382.821L227.758 390.037C224.311 391.077 220.669 389.147 219.61 385.722C218.566 382.293 220.505 378.668 223.947 377.615L247.637 370.393C251.081 369.353 254.723 371.278 255.784 374.701C256.839 378.125 254.916 381.754 251.48 382.821V382.821Z" fill="#2BD0D0"/>
<path d="M250.546 409.103C256.43 409.052 261.157 404.085 261.104 398.01C261.051 391.935 256.237 387.052 250.353 387.104C244.469 387.155 239.742 392.122 239.795 398.197C239.848 404.272 244.662 409.155 250.546 409.103Z" fill="#25233A"/>
<path d="M249.067 406.116C252.009 406.09 254.372 403.607 254.346 400.569C254.319 397.532 251.912 395.09 248.97 395.116C246.028 395.142 243.665 397.625 243.691 400.663C243.718 403.7 246.125 406.142 249.067 406.116Z" fill="#3F3D56"/>
<path d="M206.863 398.485C212.747 398.434 217.474 393.467 217.421 387.392C217.368 381.317 212.555 376.434 206.67 376.486C200.786 376.538 196.059 381.504 196.112 387.579C196.165 393.654 200.979 398.537 206.863 398.485Z" fill="#25233A"/>
<path d="M210.645 387.952C210.658 389.41 210.109 390.814 209.119 391.854C208.129 392.894 206.779 393.486 205.366 393.498C203.954 393.51 202.594 392.943 201.585 391.92C200.577 390.898 200.004 389.504 199.991 388.045C199.978 386.586 200.527 385.182 201.517 384.142C202.507 383.102 203.857 382.511 205.27 382.498C206.683 382.486 208.043 383.054 209.051 384.076C210.059 385.099 210.633 386.493 210.645 387.952V387.952Z" fill="url(#paint0_linear_1_7)"/>
<path d="M204.089 413.51C209.973 413.459 214.7 408.492 214.647 402.417C214.593 396.342 209.78 391.459 203.896 391.511C198.012 391.562 193.285 396.529 193.338 402.604C193.391 408.679 198.204 413.562 204.089 413.51Z" fill="#25233A"/>
<path d="M212.714 402.934C212.727 404.393 212.178 405.796 211.188 406.837C210.198 407.877 208.848 408.468 207.435 408.48C206.022 408.493 204.662 407.925 203.654 406.903C202.646 405.88 202.072 404.486 202.06 403.027C202.047 401.569 202.596 400.165 203.586 399.125C204.576 398.085 205.926 397.493 207.339 397.481C208.752 397.469 210.112 398.036 211.12 399.059C212.128 400.081 212.701 401.475 212.714 402.934Z" fill="#3F3D56"/>
<path d="M252.433 393.96L203.153 384.345C199.685 383.659 197.418 380.265 198.081 376.753C198.759 373.247 202.108 370.954 205.577 371.621L254.856 381.217C258.324 381.904 260.591 385.297 259.929 388.81C259.259 392.323 255.907 394.626 252.433 393.96V393.96Z" fill="#2BD0D0"/>
<path d="M221.616 313.353L235.176 313.234L235.693 372.232C235.727 376.098 232.72 379.258 228.977 379.291C227.18 379.306 225.449 378.583 224.167 377.282C222.885 375.98 222.156 374.206 222.14 372.35L221.623 313.353L221.616 313.353Z" fill="#2BD0D0"/>
<path d="M227.312 390.014L203.607 397.247C200.16 398.291 196.515 396.36 195.457 392.93C194.413 389.499 196.351 385.872 199.791 384.818L223.496 377.605C226.939 376.564 230.579 378.491 231.64 381.914C232.676 385.341 230.742 388.957 227.312 390.013L227.312 390.014Z" fill="#2BD0D0"/>
<path d="M231.97 389.525L228.948 390.102C228.03 390.275 227.097 390.341 226.165 390.299L227.427 390.06C228.263 389.908 229.076 389.648 229.848 389.284L231.97 389.525Z" fill="url(#paint1_linear_1_7)"/>
<path d="M256.066 375.791C256.082 377.335 255.597 378.84 254.689 380.066L234.756 375.89C235.253 375.142 235.607 374.304 235.798 373.419L248.02 369.389C248.807 369.136 249.636 369.053 250.456 369.146C251.276 369.238 252.068 369.504 252.784 369.926C254.245 370.78 255.331 372.228 255.806 373.947C255.97 374.546 256.058 375.167 256.066 375.791V375.791Z" fill="url(#paint2_linear_1_7)"/>
<path opacity="0.31" d="M221.396 374.46C221.25 373.947 221.173 373.416 221.169 372.882L220.656 314.361L226.412 314.311L226.965 377.378C226.91 377.689 226.932 378.006 227.028 378.308C226.138 377.998 225.207 377.833 224.268 377.821C223.599 377.787 222.926 377.793 222.257 377.839L222.668 377.735C222.921 377.693 221.739 375.652 221.397 374.46L221.396 374.46Z" fill="url(#paint3_linear_1_7)"/>
<path opacity="0.31" d="M257.464 392.842C256.529 393.373 255.475 393.656 254.4 393.665C253.968 393.667 253.536 393.628 253.111 393.546L231.369 389.33L229.558 388.983C228.942 389.468 228.245 389.831 227.501 390.056L226.429 390.383L204.186 397.244C200.791 398.28 197.202 396.362 196.159 392.952C198.109 394.74 201.048 394.882 203.159 393.292C205.865 391.372 216.68 388.43 222.806 386.862C225.702 386.139 227.901 383.767 228.418 380.813C228.432 380.64 228.456 380.466 228.491 380.295C229.523 381.399 231.414 382.632 234.821 383.663C243.213 386.178 256.814 387.774 256.814 387.774C256.814 387.774 259.288 390.173 257.464 392.842V392.842Z" fill="url(#paint4_linear_1_7)"/>
<path d="M259.105 391.027C258.593 391.817 257.942 392.501 257.186 393.044C257.833 392.38 258.473 391.707 259.105 391.027V391.027Z" fill="url(#paint5_linear_1_7)"/>
<path d="M222.437 373.907C222.718 375.08 223.296 376.155 224.111 377.022C223.908 377.063 223.7 377.118 223.491 377.179L202.943 383.519C199.767 382.734 197.653 379.7 197.995 376.416C198.335 373.133 201.025 370.608 204.293 370.507C204.732 370.504 205.17 370.544 205.602 370.627L222.437 373.907V373.907Z" fill="url(#paint6_linear_1_7)"/>
<path d="M251.647 92.4882C251.647 92.4882 251.197 71.6864 234.942 73.6238C218.685 75.5593 219.873 68.6606 212.929 69.4775C205.987 70.2953 197.975 77.3948 200.369 86.0562C202.765 94.7175 194.329 96.7325 188.835 103.368C183.339 110.003 190.246 115.332 199.656 121.69C209.066 128.048 199.117 126.468 204.751 136.601C210.386 146.733 229.045 133.563 229.045 133.563L251.647 92.4882Z" fill="#503164"/>
<path d="M122.618 438.826L133.983 439.125L133.161 345.384C133.161 345.384 133.52 321.139 155.643 318.513C177.764 315.888 378.323 284.095 378.323 284.095C378.323 284.095 386.275 283.155 390.998 298.885C395.72 314.616 400.726 376.59 400.726 376.59L462.442 384.627C462.442 384.627 463.109 275.067 440.796 269.217C418.484 263.367 127.654 296.721 127.654 296.721C127.654 296.721 107.084 413.258 122.618 438.826V438.826Z" fill="#2BD0D0"/>
<path opacity="0.197" d="M122.618 438.826L133.983 439.125L133.161 345.384C133.161 345.384 133.52 321.139 155.643 318.513C177.764 315.888 378.323 284.095 378.323 284.095C378.323 284.095 386.275 283.155 390.998 298.885C395.72 314.616 400.726 376.59 400.726 376.59L462.442 384.627C462.442 384.627 463.109 275.067 440.796 269.217C418.484 263.367 127.654 296.721 127.654 296.721C127.654 296.721 107.084 413.258 122.618 438.826V438.826Z" fill="url(#paint7_linear_1_7)"/>
<path d="M62.7135 308.529C62.7135 308.529 67.9989 276.725 107.057 268.06L382.995 232.998C382.995 232.998 410.101 231.601 422.575 239.239C435.048 246.876 452.81 253.142 460.377 288.132C467.943 323.123 470.203 382.992 470.203 382.992L463.345 384.152C463.345 384.152 452.372 275.804 441.693 269.031C431.014 262.26 144.256 306.893 144.256 306.893C144.256 306.893 124.377 311.156 122.909 341.614C121.442 372.071 123.755 438.215 123.755 438.215L63.6357 413.798L62.7135 308.529Z" fill="#2BD0D0"/>
<path opacity="0.19" d="M346.395 246.101C332.08 244.326 317.654 243.077 303.251 243.759C292.426 244.287 281.682 245.914 270.958 247.535L176.373 261.867C174.767 262.111 172.94 262.5 172.149 263.948C170.631 266.714 174.279 269.394 177.225 270.416C208.812 281.396 242.554 292.501 274.897 284.191C289.684 280.392 303.382 272.653 318.391 269.874C333.398 267.096 348.849 269.398 363.825 266.77C377.905 264.302 391.271 257.52 405.562 257.33C409.944 257.292 414.461 257.829 418.606 256.377C422.752 254.926 426.39 250.57 425.201 246.269C411.779 245.908 396.695 243.511 383.557 246.372C370.555 249.198 359.44 245.987 346.395 246.101V246.101Z" fill="url(#paint8_linear_1_7)"/>
<path d="M260.884 262.387L261.455 264.496C261.455 264.496 277.895 274.525 277.795 274.854C277.695 275.183 345.477 258.021 345.477 258.021L347.015 253.252L260.884 262.387Z" fill="#2BD0D0"/>
<path d="M260.884 262.387L261.455 264.496C261.455 264.496 277.895 274.525 277.795 274.854C277.695 275.183 345.477 258.021 345.477 258.021L347.015 253.252L260.884 262.387Z" fill="url(#paint9_linear_1_7)"/>
<path d="M261.853 262.362L321.892 248.472L347.016 253.306L278.823 270.85L261.853 262.362Z" fill="#2BD0D0"/>
<path d="M261.853 262.362L321.892 248.472L347.016 253.306L278.823 270.85L261.853 262.362Z" fill="url(#paint10_linear_1_7)"/>
<path d="M242.416 273.653L256.423 274.042C256.423 274.042 259.982 274.239 260.874 271.286C261.769 268.333 255.089 262.176 254.379 262.066C253.668 261.954 235.285 267.453 237.989 272.766L242.416 273.653Z" fill="#2BD0D0"/>
<path d="M242.416 273.653L256.423 274.042C256.423 274.042 259.982 274.239 260.874 271.286C261.769 268.333 255.089 262.176 254.379 262.066C253.668 261.954 235.285 267.453 237.989 272.766L242.416 273.653Z" fill="url(#paint11_linear_1_7)"/>
<path d="M80.1629 420.652L73.5165 442.388C53.751 449.912 36.8265 442.709 36.8265 442.709L31.7244 420.02C31.7244 420.02 56.5322 428.363 80.1629 420.652Z" fill="#2BD0D0"/>
<path d="M80.1629 420.652L73.5165 442.388C53.751 449.912 36.8265 442.709 36.8265 442.709L31.7244 420.02C31.7244 420.02 56.5322 428.363 80.1629 420.652Z" fill="url(#paint12_linear_1_7)"/>
<path d="M87.7359 400.529L85.672 417.491L80.0941 420.547C56.2855 428.176 31.2538 419.937 31.2538 419.937L26.9217 416.692L24.7778 401.08L87.7359 400.529Z" fill="#2BD0D0"/>
<path d="M87.7359 400.529L85.672 417.491L80.0941 420.547C56.2855 428.176 31.2538 419.937 31.2538 419.937L26.9217 416.692L24.7778 401.08L87.7359 400.529Z" fill="url(#paint13_linear_1_7)"/>
<path d="M56.3007 405.804C73.6861 405.652 87.7562 402.842 87.7271 399.529C87.6981 396.215 73.5809 393.653 56.1956 393.805C38.8102 393.957 24.7401 396.767 24.7691 400.08C24.7981 403.394 38.9153 405.957 56.3007 405.804Z" fill="#2BD0D0"/>
<path d="M56.3007 405.804C73.6861 405.652 87.7562 402.842 87.7271 399.529C87.6981 396.215 73.5809 393.653 56.1956 393.805C38.8102 393.957 24.7401 396.767 24.7691 400.08C24.7981 403.394 38.9153 405.957 56.3007 405.804Z" fill="url(#paint14_linear_1_7)"/>
<path d="M40.7173 269.966C37.622 268.478 34.2985 267.364 31.6126 265.175C26.2004 260.723 24.7707 252.987 23.0274 246.052C21.285 239.116 17.9627 231.503 11.3133 229.567C8.82535 228.852 5.91731 229.169 4.04658 231.02C2.07501 232.971 1.69894 236.151 2.26785 238.95C2.83579 241.749 4.18185 244.25 5.22892 246.899C7.67293 253.055 8.45881 259.779 7.50331 266.357C6.71269 271.753 4.75847 277.232 6.09006 282.504C8.34984 291.448 19.2615 296.609 19.6426 305.843C19.9026 312.074 15.0162 317.885 16.1887 324.009C17.0537 328.539 21.1072 332.046 21.3656 336.656C21.6535 341.883 16.9346 346.35 17.2109 351.578C17.4863 356.806 22.5439 360.256 25.8615 364.341C28.6447 367.778 30.3169 372.027 30.6436 376.493C30.8405 379.282 30.52 382.176 31.4198 384.814C32.076 386.741 33.3689 388.372 34.376 390.104C35.487 391.974 36.329 394.001 37.6616 395.73C39.329 397.882 41.586 399.465 44.1376 400.272C46.6893 401.08 49.4171 401.074 51.9647 400.256C52.9209 393.298 51.9696 386.216 52.1899 379.188C52.6267 365.575 57.4628 351.817 54.1749 338.634C52.9692 333.801 50.6905 329.222 50.2499 324.255C49.8594 319.819 50.9589 315.411 51.7139 311.025C53.2715 301.967 53.1644 292.618 52.4122 283.48C51.8188 276.229 46.8778 272.929 40.7183 269.966L40.7173 269.966Z" fill="#2BD0D0"/>
<path d="M60.5098 305.531C60.5115 311.593 61.906 317.849 60.0754 323.62C58.6898 327.994 55.5906 331.594 54.0116 335.897C50.3693 345.828 55.4838 356.885 54.5526 367.463C54.1646 371.821 52.7522 376.016 51.8753 380.3C50.7868 385.723 50.5572 391.292 51.1955 396.792C51.1443 397.795 51.4458 398.784 52.0445 399.577C52.6432 400.369 53.4988 400.912 54.454 401.105C57.6212 402.319 60.8985 403.2 64.2363 403.735C63.0534 397.335 64.1825 390.712 67.4102 385.116C72.443 376.442 82.3181 370.539 84.0793 360.61C85.27 353.888 82.2997 347.101 82.4462 340.269C82.555 335.721 84.034 331.322 86.6775 327.683C89.0513 324.435 92.2829 321.911 94.4891 318.545C99.7902 310.432 98.021 299.665 96.3393 290.033C94.6567 280.401 93.6325 269.308 99.8807 261.944C101.858 259.617 104.444 257.86 106.233 255.375C110.217 249.836 109.125 241.366 104.392 236.489C99.6605 231.61 92.0985 230.316 85.7413 232.536C83.0593 233.375 80.6997 235.061 78.9932 237.355C75.8139 242.097 77.1586 248.526 78.5733 254.116C79.8073 258.973 80.8164 264.58 79.2302 269.501C78.0447 273.163 74.9761 275.169 72.3764 277.734C68.6928 281.307 65.7439 285.61 63.7052 290.385C61.6665 295.161 60.5798 300.311 60.5098 305.531V305.531Z" fill="#2BD0D0"/>
<path d="M54.5007 359.34C53.6499 365.941 52.3967 372.598 52.1853 379.212L52.1911 379.877C52.1787 380.042 52.1439 380.203 52.0878 380.357C51.0004 385.785 50.766 391.359 51.3936 396.865C51.4363 397.758 51.6619 398.631 52.0553 399.425C52.0268 399.705 51.9904 399.977 51.9551 400.256C49.4066 401.074 46.678 401.08 44.1255 400.272C41.573 399.465 39.3153 397.882 37.6471 395.729C36.3533 394 35.4705 391.973 34.3605 390.103C33.3214 388.364 32.0595 386.733 31.4034 384.812C30.5035 382.161 30.8231 379.281 30.6263 376.491C30.2999 372.024 28.6273 367.774 25.8431 364.337C22.5248 360.279 17.46 356.894 17.1897 351.579C16.9194 346.264 21.6342 341.884 21.3453 336.655C21.0879 332.045 17.0324 328.539 16.1684 324.007C14.994 317.882 19.9016 312.071 19.6233 305.839C19.2421 296.604 8.3266 291.442 6.06584 282.497C4.74102 277.224 6.68845 271.744 7.47907 266.348C8.43969 259.778 7.66262 253.06 5.23002 246.907C4.18294 244.258 2.83694 241.765 2.26796 238.957C1.69997 236.152 2.07513 232.978 4.0476 231.02C5.95127 229.169 8.82734 228.852 11.3163 229.567C17.9744 231.503 21.2844 239.144 23.0345 246.08C24.7846 253.017 26.2084 260.747 31.6216 265.205C34.297 267.409 37.633 268.509 40.7302 269.998C46.8975 272.961 51.8404 276.261 52.4284 283.446C53.1477 292.585 53.2878 301.935 51.7301 310.994C50.9742 315.381 49.8873 319.79 50.2652 324.226C50.6431 328.663 52.5415 332.847 53.7948 337.142C53.9337 337.626 54.0716 338.116 54.1912 338.607C55.8638 345.432 55.4062 352.354 54.5007 359.34V359.34Z" fill="#30C59B"/>
<path d="M51.6075 398.845C51.3078 398.052 51.1362 397.212 51.0995 396.362C50.636 391.005 50.7958 385.584 51.5759 380.31C51.5968 380.155 51.6236 379.999 51.6493 379.844C51.5393 386.191 52.1232 392.584 51.6075 398.845V398.845Z" fill="url(#paint15_linear_1_7)"/>
<path d="M106.218 255.375C104.428 257.861 101.836 259.616 99.8565 261.944C93.5985 269.302 94.6247 280.401 96.3093 290.033C97.9929 299.665 99.7649 310.432 94.4551 318.546C92.2468 321.885 89.0105 324.436 86.6319 327.684C83.9845 331.321 82.5026 335.72 82.3929 340.269C82.2474 347.102 85.2225 353.888 84.0299 360.611C82.2657 370.54 72.3752 376.455 67.3347 385.118C64.1147 390.716 62.9929 397.339 64.1811 403.735C60.8467 403.2 57.573 402.319 54.4094 401.106C53.5456 400.85 52.7597 400.369 52.1267 399.711C52.0367 399.604 51.9556 399.489 51.8844 399.368C51.4778 398.581 51.2393 397.714 51.185 396.824C50.5566 391.323 50.7975 385.754 51.8988 380.333C51.9294 380.173 51.9667 380.013 52.0041 379.854C52.8843 375.736 54.2041 371.694 54.58 367.495C54.7756 364.773 54.6997 362.037 54.3534 359.331C55.2668 352.351 55.7283 345.436 54.0242 338.665C53.9037 338.176 53.7638 337.685 53.6239 337.201C53.7432 336.775 53.8809 336.349 54.039 335.929C55.6209 331.626 58.7249 328.028 60.1115 323.653C61.9392 317.881 60.5486 311.626 60.5468 305.563C60.5394 295.093 65.038 284.943 72.3425 277.734C74.9451 275.169 78.0185 273.164 79.206 269.502C80.795 264.58 79.7589 258.973 78.5481 254.117C77.1256 248.526 75.7654 242.098 78.9699 237.355C80.5621 235.004 83.0913 233.462 85.7276 232.536C92.0694 230.315 99.675 231.61 104.408 236.488C109.141 241.367 110.209 249.868 106.218 255.375V255.375Z" fill="#30C59B"/>
<path d="M219.767 149.509C219.767 149.509 192.861 154.045 180.667 184.83C168.473 215.615 175.287 253.562 175.534 256.904C175.782 260.246 213.88 274.419 224.735 274.324C235.591 274.229 237.753 262.981 237.753 262.981L218.498 254.716L276.717 247.257L287.182 247.165L281.506 257.247C281.506 257.247 292.891 258.377 300.495 258.592C308.099 258.806 313.126 243.241 313.91 235.514C314.695 227.79 279.671 160.353 274.492 156.387C269.314 152.419 255.274 142.737 219.767 149.509V149.509Z" fill="#2BD0D0"/>
<path d="M251.052 91.8625C251.052 91.8625 255.951 94.6497 255.593 103.808C255.235 112.967 252.608 126.767 249.866 130.359C247.123 133.954 237.434 135.436 237.434 135.436C237.434 135.436 242.84 148.367 246.808 151.681C250.775 154.995 242.987 167.402 235.272 163.421C227.558 159.44 218.565 149.351 218.565 149.351C218.565 149.351 224.862 137.051 222.64 130.625C220.419 124.199 211.952 101.653 218.093 95.4213C224.234 89.1873 237.513 80.2156 251.052 91.8625V91.8625Z" fill="url(#paint16_linear_1_7)"/>
<path opacity="0.25" d="M209.265 193.456L205.541 247.546L218.424 254.378L228.831 252.409L215.681 236.02L209.265 193.456ZM276.716 189.865C276.716 189.865 294.431 231.789 286.872 246.778L280.938 245.67L276.716 189.865Z" fill="white"/>
<path d="M230.384 261.319C230.384 261.319 223.881 267.151 226.845 271.617C229.81 276.082 233.3 275.924 236.194 273.89C239.088 271.856 244.766 267.039 251.599 269.167C258.432 271.296 260.1 272.673 260.1 272.673C260.1 272.673 263.668 270.326 262.717 268.011C261.765 265.696 254.572 258.232 252.499 257.275C250.425 256.318 241.878 259.389 241.878 259.389C241.878 259.389 235.564 257.686 230.384 261.32L230.384 261.319Z" fill="url(#paint17_linear_1_7)"/>
<path d="M288.069 248.366C288.069 248.366 281.891 249.179 280.366 253.391C278.84 257.602 278.283 258.119 278.283 258.119C278.283 258.119 281.782 258.779 283.217 256.812C284.653 254.845 286.17 255.653 286.17 255.653L285.759 258.164C285.759 258.164 295.262 259.558 299.535 257.933C303.808 256.307 305.632 254.426 305.632 254.426L307.273 250.172C307.273 250.172 303.198 247.178 300.141 246.734C297.083 246.291 288.069 248.366 288.069 248.366V248.366Z" fill="url(#paint18_linear_1_7)"/>
<path d="M321.101 292.481C321.101 292.481 342.492 308.981 340.801 331.568C339.111 354.156 336.631 387.694 336.631 387.694C336.631 387.694 328.095 391.491 322.386 387.819C316.676 384.147 312.792 333.251 309.937 328.413C307.081 323.574 289.967 301.797 271.87 300.066L321.101 292.481Z" fill="#25233A"/>
<path d="M214.801 309.47C214.801 309.47 225.004 319.276 243.064 322.225C261.125 325.174 269.554 327.693 275.204 343.549C280.855 359.406 286.441 393.59 288.206 397.401C289.969 401.211 297.309 399.195 297.309 399.195C297.309 399.195 301.427 394.264 301.189 367.046C300.857 329.101 303.36 321.301 294.009 311.85C284.658 302.399 276.205 299.874 276.205 299.874L214.801 309.47Z" fill="#3F3D56"/>
<path d="M288.233 398.773L290.12 412.954L293.421 412.925C293.421 412.925 314.69 413.925 315.352 413.408C316.014 412.889 314.23 402.174 306.179 402.547C298.127 402.922 297.578 400.6 297.578 400.6L288.233 398.773ZM323.984 388.615L327.513 402.429L364.697 396.891C364.697 396.891 365.928 387.786 354.142 388.792C351.031 389.053 348.732 391.304 344.991 391.357C341.249 391.41 337.652 389.878 335.743 387.356L323.984 388.615Z" fill="#25233A"/>
<path d="M449.156 213.693L311.449 222.553C308.119 222.763 305.252 220.137 305.042 216.683L304.152 115.095C304.119 110.994 307.251 107.62 311.203 107.498L448.388 103.359C449.261 103.333 450.129 103.486 450.944 103.808C451.759 104.129 452.505 104.614 453.138 105.235C454.42 106.491 455.168 108.22 455.219 110.044L456.06 206.011C456.09 210.067 453.06 213.439 449.156 213.693V213.693Z" fill="#2BD0D0"/>
<path d="M456.905 213.625L319.191 222.487C315.861 222.693 312.998 220.063 312.791 216.608L311.901 115.027C311.861 110.925 314.993 107.548 318.946 107.43L456.15 103.291C459.808 103.189 462.857 106.176 462.968 109.97L463.808 205.943C463.839 210 460.809 213.373 456.905 213.625V213.625Z" fill="#2BD0D0"/>
<path d="M456.905 213.625L319.191 222.487C315.861 222.693 312.998 220.063 312.791 216.608L311.901 115.027C311.861 110.925 314.993 107.548 318.946 107.43L456.15 103.291C459.808 103.189 462.857 106.176 462.968 109.97L463.808 205.943C463.839 210 460.809 213.373 456.905 213.625V213.625Z" fill="url(#paint19_linear_1_7)"/>
<path d="M416.535 252.781L381.414 256.951C381.414 256.951 370.688 254.815 371.253 253.178C371.819 251.539 382.999 249.869 382.999 249.869L382.423 184.068C382.325 183.923 380.834 181.998 376.787 180.798C376.003 180.566 375.206 180.382 374.4 180.249C373.707 180.151 373.033 179.946 372.399 179.643C369.987 178.384 372.62 176.131 376.345 175.998C376.929 175.972 377.514 176.002 378.092 176.089L405.128 175.852C405.128 175.852 415.39 178.735 416.016 193.568C416.641 208.402 416.535 252.781 416.535 252.781V252.781Z" fill="#3A3054"/>
<path d="M387.698 253.173L381.262 256.952C381.262 256.952 370.697 254.814 371.253 253.177C371.81 251.54 382.843 249.87 382.843 249.87L382.267 184.063C382.132 183.913 380.5 182.181 376.714 180.794C375.305 180.289 373.86 179.902 372.391 179.637C370.015 178.378 372.607 176.125 376.278 175.993C379.409 176.41 385.598 179.939 386.016 181.981C386.433 184.021 387.698 253.173 387.698 253.173V253.173Z" fill="#51466B"/>
<path d="M258.146 392.036C257.301 393.044 256.908 393.417 257.405 392.589C257.665 392.428 257.912 392.243 258.146 392.036Z" fill="url(#paint20_linear_1_7)"/>
</g>
<defs>
<linearGradient id="paint0_linear_1_7" x1="199.991" y1="388.045" x2="210.645" y2="387.952" gradientUnits="userSpaceOnUse">
<stop stop-color="#183866"/>
<stop offset="1" stop-color="#1A7FC1"/>
</linearGradient>
<linearGradient id="paint1_linear_1_7" x1="226.153" y1="389.817" x2="231.972" y2="389.766" gradientUnits="userSpaceOnUse">
<stop/>
<stop offset="0.99" stop-opacity="0"/>
</linearGradient>
<linearGradient id="paint2_linear_1_7" x1="271.672" y1="306.655" x2="296.818" y2="317.782" gradientUnits="userSpaceOnUse">
<stop/>
<stop offset="0.99" stop-opacity="0"/>
</linearGradient>
<linearGradient id="paint3_linear_1_7" x1="222.634" y1="149.219" x2="219.211" y2="148.348" gradientUnits="userSpaceOnUse">
<stop/>
<stop offset="0.99" stop-opacity="0"/>
</linearGradient>
<linearGradient id="paint4_linear_1_7" x1="292.722" y1="368.976" x2="208.471" y2="343.128" gradientUnits="userSpaceOnUse">
<stop/>
<stop offset="0.99" stop-opacity="0"/>
</linearGradient>
<linearGradient id="paint5_linear_1_7" x1="300" y1="58.9581" x2="296.125" y2="57.81" gradientUnits="userSpaceOnUse">
<stop/>
<stop offset="0.99" stop-opacity="0"/>
</linearGradient>
<linearGradient id="paint6_linear_1_7" x1="260.543" y1="314.625" x2="233.621" y2="321.81" gradientUnits="userSpaceOnUse">
<stop/>
<stop offset="0.99" stop-opacity="0"/>
</linearGradient>
<linearGradient id="paint7_linear_1_7" x1="485.466" y1="305.845" x2="-7.2524" y2="287.194" gradientUnits="userSpaceOnUse">
<stop/>
<stop offset="1" stop-opacity="0"/>
</linearGradient>
<linearGradient id="paint8_linear_1_7" x1="207.414" y1="226.699" x2="461.181" y2="224.476" gradientUnits="userSpaceOnUse">
<stop stop-color="#183866"/>
<stop offset="1" stop-color="#1A7FC1"/>
</linearGradient>
<linearGradient id="paint9_linear_1_7" x1="295.698" y1="262" x2="299.053" y2="274.195" gradientUnits="userSpaceOnUse">
<stop/>
<stop offset="0.99" stop-opacity="0"/>
</linearGradient>
<linearGradient id="paint10_linear_1_7" x1="251.142" y1="258.975" x2="334.498" y2="284.012" gradientUnits="userSpaceOnUse">
<stop/>
<stop offset="0.99" stop-opacity="0"/>
</linearGradient>
<linearGradient id="paint11_linear_1_7" x1="250.163" y1="267.173" x2="249.556" y2="272.003" gradientUnits="userSpaceOnUse">
<stop/>
<stop offset="0.99" stop-opacity="0"/>
</linearGradient>
<linearGradient id="paint12_linear_1_7" x1="123.429" y1="332.569" x2="80.4664" y2="331.34" gradientUnits="userSpaceOnUse">
<stop/>
<stop offset="0.99" stop-opacity="0"/>
</linearGradient>
<linearGradient id="paint13_linear_1_7" x1="130.657" y1="371.114" x2="94.7642" y2="370.24" gradientUnits="userSpaceOnUse">
<stop/>
<stop offset="0.99" stop-opacity="0"/>
</linearGradient>
<linearGradient id="paint14_linear_1_7" x1="60.6415" y1="399" x2="59.3081" y2="405.677" gradientUnits="userSpaceOnUse">
<stop/>
<stop offset="0.99" stop-opacity="0"/>
</linearGradient>
<linearGradient id="paint15_linear_1_7" x1="48.8558" y1="99.8794" x2="45.8199" y2="119.011" gradientUnits="userSpaceOnUse">
<stop/>
<stop offset="0.99" stop-opacity="0"/>
</linearGradient>
<linearGradient id="paint16_linear_1_7" x1="216.079" y1="125.389" x2="255.806" y2="125.041" gradientUnits="userSpaceOnUse">
<stop stop-color="#ECC4D7"/>
<stop offset="0.42" stop-color="#EFD4D1"/>
<stop offset="1" stop-color="#F2EAC9"/>
</linearGradient>
<linearGradient id="paint17_linear_1_7" x1="262.161" y1="227.602" x2="298.967" y2="227.28" gradientUnits="userSpaceOnUse">
<stop stop-color="#ECC4D7"/>
<stop offset="0.42" stop-color="#EFD4D1"/>
<stop offset="1" stop-color="#F2EAC9"/>
</linearGradient>
<linearGradient id="paint18_linear_1_7" x1="314.215" y1="236.392" x2="343.273" y2="236.137" gradientUnits="userSpaceOnUse">
<stop stop-color="#ECC4D7"/>
<stop offset="0.42" stop-color="#EFD4D1"/>
<stop offset="1" stop-color="#F2EAC9"/>
</linearGradient>
<linearGradient id="paint19_linear_1_7" x1="507.599" y1="221.269" x2="368.117" y2="312.859" gradientUnits="userSpaceOnUse">
<stop stop-color="#362958" stop-opacity="0.501"/>
<stop offset="1" stop-color="#34313D" stop-opacity="0"/>
</linearGradient>
<linearGradient id="paint20_linear_1_7" x1="292.818" y1="49.6124" x2="291.677" y2="49.2149" gradientUnits="userSpaceOnUse">
<stop/>
<stop offset="0.99" stop-opacity="0"/>
</linearGradient>
<clipPath id="clip0_1_7">
<rect width="603" height="482" fill="white" transform="translate(0 5.28223) rotate(-0.501913)"/>
</clipPath>
</defs>
</svg>
